<svg xmlns="http://www.w3.org/2000/svg" viewBox="0 0 200 200"><title>网页物料</title><g id="图层_2" data-name="图层 2"><path d="M154.57,123.29V76.92a7.67,7.67,0,1,0-7.16-12.84L106.88,40.67v-.36a7.67,7.67,0,1,0-15.33-.43,3.08,3.08,0,0,0,0,.43,7.85,7.85,0,0,0,.1,1.19L52.59,64.08a7.67,7.67,0,1,0-7.15,12.84v46.37a7.66,7.66,0,1,0,7.61,12.3L91.79,158a7.66,7.66,0,1,0,14.83,3.88,7.5,7.5,0,0,0,.25-1.95,8.75,8.75,0,0,0-.09-1.14L147,135.59A7.66,7.66,0,1,0,158.88,126a7.59,7.59,0,0,0-4.31-2.67ZM49,123.34V76.88a7.58,7.58,0,0,0,3.85-2.33L77.29,89.09a24.56,24.56,0,0,0,.23,22.49l-24.78,14A7.64,7.64,0,0,0,49,123.34Zm27-23.25h0a23,23,0,0,1,2.47-10.35l10,5.92a11.7,11.7,0,0,0,.34,9.62L78.61,111a23.23,23.23,0,0,1-2.67-10.83Zm24-11.74V76.82a23.29,23.29,0,0,1,18.61,10.23L108.61,93A11.78,11.78,0,0,0,99.94,88.35Zm-1.4,0a11.75,11.75,0,0,0-8.42,4.3L80.2,86.73a23.28,23.28,0,0,1,18.37-9.91ZM89.35,106.5a11.76,11.76,0,0,0,8.14,5.24v11.62A23.33,23.33,0,0,1,79.3,112.19ZM101,111.74a11.72,11.72,0,0,0,8.35-5.56l10,5.68A23.34,23.34,0,0,1,101,123.36Zm9-6.8a11.62,11.62,0,0,0,.3-8.91l10-6a23.37,23.37,0,0,1-.25,20.54Zm13.82-4.83a24.29,24.29,0,0,0-2.43-10.66L147,74.25a7.73,7.73,0,0,0,4.12,2.63v46.46a7.64,7.64,0,0,0-4.05,2.53l-25.89-14.63a24.44,24.44,0,0,0,2.67-11.13Zm21.8-33a7.7,7.7,0,0,0-.38,2.38,9.26,9.26,0,0,0,.18,1.65l-25.78,15.3A24.56,24.56,0,0,0,100,75.56V47.94a7.68,7.68,0,0,0,6-3.81ZM93,44.78a7.64,7.64,0,0,0,5.52,3.16V75.56A24.53,24.53,0,0,0,79.08,86.09L54.5,71.48a7.78,7.78,0,0,0,.28-2,7.7,7.7,0,0,0-.38-2.38ZM54.6,132.4a7.65,7.65,0,0,0,.18-1.65,7.55,7.55,0,0,0-1.19-4.07l24.6-13.9a24.59,24.59,0,0,0,19.29,11.83v27.83a7.73,7.73,0,0,0-4,2.43Zm50.9,23.06a7.66,7.66,0,0,0-4.51-3V124.58a24.55,24.55,0,0,0,19.48-12.13L146.22,127a7.54,7.54,0,0,0-.79,5.4Z"/></g></svg>