<svg width="88" height="88" viewBox="0 0 88 88" fill="none" xmlns="http://www.w3.org/2000/svg">
<path d="M69.1643 19.8734C68.5766 18.76 67.9158 17.6879 67.1865 16.6645C66.9289 16.3044 66.6629 15.9495 66.3885 15.5998C64.5329 13.2379 62.3115 11.1979 59.8113 9.55943C56.3598 7.30382 52.3377 6.16016 47.856 6.16016C42.5431 6.16016 37.4336 8.14436 33.0065 11.9136C32.6895 12.1837 32.3763 12.462 32.0668 12.7487L32.0149 12.798C26.2897 18.1471 23.0071 25.7916 23.0071 33.7824V78.8385L23.2232 79.0978C23.4573 79.378 25.7291 81.8375 33.4215 81.8375C36.6735 81.8375 39.3562 81.3041 41.3952 80.2529C42.9953 79.4279 43.6104 78.5651 43.6756 78.4679L43.8366 78.2302V72.1926H51.5097V78.3092L51.7571 78.5793C51.8801 78.7143 54.8541 81.8402 62.2899 81.8402C65.365 81.8402 67.9493 81.4108 69.9697 80.5642C71.5491 79.9025 72.2095 79.2078 72.2793 79.1309L72.522 78.8642V33.4955C72.522 28.7437 71.3687 24.0652 69.1643 19.8734ZM70.6939 78.0696C70.4219 78.2721 69.9158 78.5935 69.1131 78.9135C67.8881 79.4016 65.7108 79.9842 62.2892 79.9842C58.8457 79.9842 56.5234 79.2524 55.1807 78.6387C54.2496 78.2113 53.6458 77.7806 53.3365 77.5281V70.3373H42.009V77.5929C41.7736 77.8292 41.2775 78.2545 40.413 78.6778C39.1973 79.2733 36.998 79.9829 33.4228 79.9829C29.8476 79.9829 27.6257 79.407 26.4001 78.9236C25.5867 78.6029 25.094 78.2816 24.8359 78.0831V33.7824C24.8359 26.2885 27.9217 19.1179 33.3024 14.1166C33.5239 13.914 33.7567 13.7014 33.9994 13.4914C34.2967 13.2335 34.6106 12.9736 34.9397 12.7157C37.9736 10.3304 42.3402 8.01474 47.8573 8.01474C51.9805 8.01474 55.6715 9.05916 58.8231 11.1203C60.5654 12.2607 62.1642 13.6126 63.584 15.1461C64.0132 15.6079 64.4253 16.0861 64.8203 16.5808C65.8602 17.8796 66.7759 19.276 67.5549 20.7511C69.617 24.6724 70.6958 29.049 70.6959 33.4941L70.6939 78.0696Z" fill="white"/>
<path d="M45.0203 23.7177C38.892 23.7177 33.9056 28.7812 33.9056 35.0018C33.9056 41.2225 38.8933 46.2853 45.0203 46.2853C51.1472 46.2853 56.1356 41.2218 56.1356 35.0018C56.1356 28.7819 51.1492 23.7177 45.0203 23.7177ZM45.112 43.5139C43.4717 43.514 41.8681 43.0203 40.5042 42.0952C39.1402 41.1702 38.0771 39.8553 37.4493 38.3168C36.8214 36.7784 36.6571 35.0854 36.977 33.4522C37.297 31.8189 38.0868 30.3186 39.2467 29.141C40.4065 27.9635 41.8843 27.1615 43.4931 26.8366C45.102 26.5117 46.7696 26.6784 48.2851 27.3156C49.8006 27.9529 51.0959 29.032 52.0072 30.4166C52.9186 31.8012 53.405 33.4291 53.405 35.0943C53.4025 37.3264 52.528 39.4664 50.9734 41.0448C49.4187 42.6232 47.3108 43.5112 45.112 43.5139ZM45.0203 23.7177C38.892 23.7177 33.9056 28.7812 33.9056 35.0018C33.9056 41.2225 38.8933 46.2853 45.0203 46.2853C51.1472 46.2853 56.1356 41.2218 56.1356 35.0018C56.1356 28.7819 51.1492 23.7177 45.0203 23.7177ZM45.112 43.5139C43.4717 43.514 41.8681 43.0203 40.5042 42.0952C39.1402 41.1702 38.0771 39.8553 37.4493 38.3168C36.8214 36.7784 36.6571 35.0854 36.977 33.4522C37.297 31.8189 38.0868 30.3186 39.2467 29.141C40.4065 27.9635 41.8843 27.1615 43.4931 26.8366C45.102 26.5117 46.7696 26.6784 48.2851 27.3156C49.8006 27.9529 51.0959 29.032 52.0072 30.4166C52.9186 31.8012 53.405 33.4291 53.405 35.0943C53.4025 37.3264 52.528 39.4664 50.9734 41.0448C49.4187 42.6232 47.3108 43.5112 45.112 43.5139ZM48.4818 18.8797C46.9185 18.4263 45.2821 18.2927 43.6676 18.4868C36.5764 19.3409 31.0439 26.4088 31.0439 35.0012C31.0439 38.6894 32.0634 42.0974 33.7885 44.8533C36.3502 48.9473 40.4688 51.6046 45.1127 51.6046C49.7214 51.6046 53.8127 48.9892 56.379 44.9478C57.2142 43.6267 57.8709 42.1978 58.3316 40.6993C58.8837 38.9039 59.17 37.0352 59.1808 35.1544V35.1504C59.1808 35.1018 59.1808 35.0531 59.1808 35.0045C59.1808 27.2034 54.624 20.6614 48.4818 18.8797ZM45.0236 47.8306C38.0554 47.8306 32.388 42.0758 32.388 35.0032C32.388 27.9305 38.0567 22.1757 45.0236 22.1757C51.9905 22.1757 57.6592 27.9305 57.6592 35.0032C57.6592 42.0758 51.9885 47.8306 45.0203 47.8306H45.0236ZM45.0236 23.7177C38.8953 23.7177 33.9089 28.7812 33.9089 35.0018C33.9089 41.2225 38.8967 46.2853 45.0236 46.2853C51.1505 46.2853 56.1389 41.2218 56.1389 35.0018C56.1389 28.7819 51.1492 23.7177 45.0203 23.7177H45.0236ZM45.1154 43.5139C43.475 43.514 41.8715 43.0203 40.5075 42.0952C39.1435 41.1702 38.0804 39.8553 37.4526 38.3168C36.8248 36.7784 36.6604 35.0854 36.9804 33.4522C37.3003 31.8189 38.0901 30.3186 39.25 29.141C40.4098 27.9635 41.8876 27.1615 43.4965 26.8366C45.1053 26.5117 46.7729 26.6784 48.2884 27.3156C49.8039 27.9529 51.0992 29.032 52.0106 30.4166C52.9219 31.8012 53.4083 33.4291 53.4083 35.0943C53.4059 37.327 52.5309 39.4675 50.9755 41.046C49.4201 42.6245 47.3114 43.5121 45.112 43.5139H45.1154ZM45.0236 23.7177C38.8953 23.7177 33.9089 28.7812 33.9089 35.0018C33.9089 41.2225 38.8967 46.2853 45.0236 46.2853C51.1505 46.2853 56.1389 41.2218 56.1389 35.0018C56.1389 28.7819 51.1492 23.7177 45.0203 23.7177H45.0236ZM45.1154 43.5139C43.475 43.514 41.8715 43.0203 40.5075 42.0952C39.1435 41.1702 38.0804 39.8553 37.4526 38.3168C36.8248 36.7784 36.6604 35.0854 36.9804 33.4522C37.3003 31.8189 38.0901 30.3186 39.25 29.141C40.4098 27.9635 41.8876 27.1615 43.4965 26.8366C45.1053 26.5117 46.7729 26.6784 48.2884 27.3156C49.8039 27.9529 51.0992 29.032 52.0106 30.4166C52.9219 31.8012 53.4083 33.4291 53.4083 35.0943C53.4059 37.327 52.5309 39.4675 50.9755 41.046C49.4201 42.6245 47.3114 43.5121 45.112 43.5139H45.1154ZM45.0236 23.7177C38.8953 23.7177 33.9089 28.7812 33.9089 35.0018C33.9089 41.2225 38.8967 46.2853 45.0236 46.2853C51.1505 46.2853 56.1389 41.2218 56.1389 35.0018C56.1389 28.7819 51.1492 23.7177 45.0203 23.7177H45.0236ZM45.1154 43.5139C43.475 43.514 41.8715 43.0203 40.5075 42.0952C39.1435 41.1702 38.0804 39.8553 37.4526 38.3168C36.8248 36.7784 36.6604 35.0854 36.9804 33.4522C37.3003 31.8189 38.0901 30.3186 39.25 29.141C40.4098 27.9635 41.8876 27.1615 43.4965 26.8366C45.1053 26.5117 46.7729 26.6784 48.2884 27.3156C49.8039 27.9529 51.0992 29.032 52.0106 30.4166C52.9219 31.8012 53.4083 33.4291 53.4083 35.0943C53.4059 37.327 52.5309 39.4675 50.9755 41.046C49.4201 42.6245 47.3114 43.5121 45.112 43.5139H45.1154Z" fill="white"/>
<path d="M45.0207 23.7201C38.8925 23.7201 33.9061 28.7835 33.9061 35.0042C33.9061 41.2248 38.8938 46.2876 45.0207 46.2876C51.1477 46.2876 56.1361 41.2241 56.1361 35.0042C56.1361 28.7842 51.1497 23.7201 45.0207 23.7201ZM45.1125 43.5162C43.4722 43.5163 41.8686 43.0227 40.5047 42.0976C39.1407 41.1725 38.0776 39.8576 37.4497 38.3192C36.8219 36.7807 36.6576 35.0878 36.9775 33.4545C37.2975 31.8212 38.0873 30.321 39.2471 29.1434C40.407 27.9658 41.8848 27.1639 43.4936 26.839C45.1024 26.514 46.77 26.6807 48.2855 27.318C49.801 27.9552 51.0964 29.0344 52.0077 30.419C52.919 31.8036 53.4055 33.4314 53.4055 35.0967C53.403 37.3288 52.5285 39.4688 50.9738 41.0472C49.4192 42.6256 47.3113 43.5135 45.1125 43.5162ZM45.0207 23.7201C38.8925 23.7201 33.9061 28.7835 33.9061 35.0042C33.9061 41.2248 38.8938 46.2876 45.0207 46.2876C51.1477 46.2876 56.1361 41.2241 56.1361 35.0042C56.1361 28.7842 51.1497 23.7201 45.0207 23.7201ZM45.1125 43.5162C43.4722 43.5163 41.8686 43.0227 40.5047 42.0976C39.1407 41.1725 38.0776 39.8576 37.4497 38.3192C36.8219 36.7807 36.6576 35.0878 36.9775 33.4545C37.2975 31.8212 38.0873 30.321 39.2471 29.1434C40.407 27.9658 41.8848 27.1639 43.4936 26.839C45.1024 26.514 46.77 26.6807 48.2855 27.318C49.801 27.9552 51.0964 29.0344 52.0077 30.419C52.919 31.8036 53.4055 33.4314 53.4055 35.0967C53.403 37.3288 52.5285 39.4688 50.9738 41.0472C49.4192 42.6256 47.3113 43.5135 45.1125 43.5162ZM45.1444 15.4355C44.1706 15.4351 43.198 15.5084 42.2349 15.655C41.7029 15.7351 41.1793 15.8372 40.6641 15.9615C40.4424 16.0146 40.2208 16.0717 39.9991 16.133C39.7074 16.214 39.4192 16.302 39.1345 16.3969C32.2182 18.6883 27.269 24.8253 27.269 32.0363C27.2719 34.954 28.0883 37.8113 29.6239 40.2776C30.0172 40.9147 30.4529 41.5237 30.928 42.1005C31.7742 43.1266 32.7337 44.0506 33.7877 44.8543C36.8754 47.2173 40.831 48.635 45.1438 48.635C49.4 48.635 53.309 47.2531 56.3782 44.9461C56.9363 44.5266 57.4692 44.0737 57.9742 43.5898C58.4149 43.1684 58.8329 42.7233 59.2265 42.2564C61.6007 39.4384 63.0172 35.8906 63.0172 32.0356C63.0178 22.8674 55.0135 15.4355 45.1444 15.4355ZM45.0207 47.833C38.0525 47.833 32.3851 42.0782 32.3851 35.0055C32.3851 27.9329 38.0539 22.1781 45.0207 22.1781C51.9876 22.1781 57.6564 27.9329 57.6564 35.0055C57.6564 42.0782 51.989 47.833 45.0207 47.833ZM45.0207 23.7201C38.8925 23.7201 33.9061 28.7835 33.9061 35.0042C33.9061 41.2248 38.8938 46.2876 45.0207 46.2876C51.1477 46.2876 56.1361 41.2241 56.1361 35.0042C56.1361 28.7842 51.1497 23.7201 45.0207 23.7201ZM45.1125 43.5162C43.4722 43.5163 41.8686 43.0227 40.5047 42.0976C39.1407 41.1725 38.0776 39.8576 37.4497 38.3192C36.8219 36.7807 36.6576 35.0878 36.9775 33.4545C37.2975 31.8212 38.0873 30.321 39.2471 29.1434C40.407 27.9658 41.8848 27.1639 43.4936 26.839C45.1024 26.514 46.77 26.6807 48.2855 27.318C49.801 27.9552 51.0964 29.0344 52.0077 30.419C52.919 31.8036 53.4055 33.4314 53.4055 35.0967C53.403 37.3288 52.5285 39.4688 50.9738 41.0472C49.4192 42.6256 47.3113 43.5135 45.1125 43.5162ZM45.0207 23.7201C38.8925 23.7201 33.9061 28.7835 33.9061 35.0042C33.9061 41.2248 38.8938 46.2876 45.0207 46.2876C51.1477 46.2876 56.1361 41.2241 56.1361 35.0042C56.1361 28.7842 51.1497 23.7201 45.0207 23.7201ZM45.1125 43.5162C43.4722 43.5163 41.8686 43.0227 40.5047 42.0976C39.1407 41.1725 38.0776 39.8576 37.4497 38.3192C36.8219 36.7807 36.6576 35.0878 36.9775 33.4545C37.2975 31.8212 38.0873 30.321 39.2471 29.1434C40.407 27.9658 41.8848 27.1639 43.4936 26.839C45.1024 26.514 46.77 26.6807 48.2855 27.318C49.801 27.9552 51.0964 29.0344 52.0077 30.419C52.919 31.8036 53.4055 33.4314 53.4055 35.0967C53.403 37.3288 52.5285 39.4688 50.9738 41.0472C49.4192 42.6256 47.3113 43.5135 45.1125 43.5162ZM45.0207 23.7201C38.8925 23.7201 33.9061 28.7835 33.9061 35.0042C33.9061 41.2248 38.8938 46.2876 45.0207 46.2876C51.1477 46.2876 56.1361 41.2241 56.1361 35.0042C56.1361 28.7842 51.1497 23.7201 45.0207 23.7201ZM45.1125 43.5162C43.4722 43.5163 41.8686 43.0227 40.5047 42.0976C39.1407 41.1725 38.0776 39.8576 37.4497 38.3192C36.8219 36.7807 36.6576 35.0878 36.9775 33.4545C37.2975 31.8212 38.0873 30.321 39.2471 29.1434C40.407 27.9658 41.8848 27.1639 43.4936 26.839C45.1024 26.514 46.77 26.6807 48.2855 27.318C49.801 27.9552 51.0964 29.0344 52.0077 30.419C52.919 31.8036 53.4055 33.4314 53.4055 35.0967C53.403 37.3288 52.5285 39.4688 50.9738 41.0472C49.4192 42.6256 47.3113 43.5135 45.1125 43.5162Z" fill="white"/>
<path d="M80.7517 47.6C79.828 45.4322 78.6781 42.7344 78.9448 39.7044C79.1443 37.4454 79.5187 35.4254 79.8812 33.4723C81.0915 26.958 82.0472 21.8128 74.0881 16.1923C71.412 14.302 70.1704 14.6983 68.7332 15.156C68.0762 15.366 67.3673 15.5915 66.3883 15.6016C65.9666 15.6044 65.5453 15.5719 65.1288 15.5044C64.6914 15.4347 64.2583 15.3392 63.8319 15.2181L63.5826 15.1466C60.8014 14.3324 58.8156 13.1212 57.0573 12.0551C54.7855 10.6732 52.823 9.4802 50.1509 9.8846C47.6018 10.2708 44.5547 12.1125 40.3749 15.8068C40.2535 15.9144 40.1309 16.0233 40.0072 16.1336C39.8396 16.2844 39.6698 16.4379 39.4978 16.594L39.2982 16.7736C38.5793 17.4325 37.6024 18.0361 36.5683 18.6748C33.682 20.4585 30.0895 22.6776 29.7504 27.7114C29.4844 31.619 29.2762 36.11 29.6287 40.2783C29.6619 40.6833 29.7012 41.0828 29.7464 41.4766C30.3103 46.4361 31.6796 50.0231 33.9321 52.4407C36.1679 54.8415 39.3076 56.0574 43.2685 56.0567C43.3503 56.0567 43.4334 56.0567 43.5159 56.0567C50.8246 55.9642 53.9848 54.4951 56.5239 53.3143C57.3725 52.9194 58.1399 52.5629 58.9679 52.2956C59.3173 52.1829 59.6725 52.0896 60.0319 52.0161C61.3667 51.746 62.9621 51.7197 65.2771 52.1106C67.334 52.4583 69.1283 52.7351 70.6937 52.9498C71.0076 52.9925 71.3122 53.0326 71.6075 53.0699C71.9223 53.1104 72.2269 53.1483 72.5213 53.1834C78.7174 53.9132 80.6347 53.4359 81.436 52.3935C82.3099 51.2559 81.6216 49.643 80.7517 47.6ZM80.5735 51.7062C79.8499 52.646 76.5906 52.5616 72.5219 52.0707C72.2213 52.0343 71.9167 51.9958 71.6082 51.9553C71.3071 51.9161 71.0025 51.875 70.6944 51.8318C69.0006 51.5955 67.2196 51.3085 65.458 51.0115C62.9435 50.5868 61.1678 50.6442 59.7014 50.9561C59.3297 51.0344 58.9779 51.1296 58.6374 51.2376C57.7323 51.5259 56.9196 51.904 56.0657 52.301C53.621 53.4379 50.5779 54.853 43.5006 54.9427H43.2559C39.5663 54.9427 36.7744 53.8727 34.7275 51.6751C32.5847 49.375 31.4562 46.0175 30.9315 42.1011C30.3522 37.7864 30.5059 32.7924 30.843 27.7884C31.1436 23.3325 34.3278 21.3625 37.1369 19.6267C38.2162 18.9597 39.2357 18.3298 40.0318 17.6013C40.2016 17.4461 40.3689 17.2937 40.5339 17.1443C40.8385 16.8702 41.1368 16.6053 41.429 16.3496C41.7034 16.1106 41.9723 15.88 42.2357 15.6576C45.6579 12.7688 48.203 11.3064 50.3105 10.9871C50.5991 10.9427 50.8905 10.9202 51.1824 10.9196C53.0538 10.9196 54.6 11.86 56.492 13.0125C58.3621 14.1501 60.4822 15.4389 63.5413 16.2936C63.9622 16.4125 64.3889 16.5094 64.8195 16.5839C65.2373 16.6569 65.6594 16.7007 66.0831 16.7149C66.4504 16.7274 66.818 16.712 67.183 16.669C67.9272 16.5812 68.5224 16.3915 69.0591 16.2207C70.3639 15.8055 71.2251 15.5307 73.4603 17.1092C76.8746 19.5194 78.746 21.9377 79.3511 24.7192C79.9118 27.2969 79.3977 30.0642 78.8025 33.2691C78.452 35.1594 78.0543 37.2949 77.8508 39.6079C77.5595 42.916 78.7706 45.761 79.7442 48.047C80.4425 49.6788 81.045 51.0925 80.5721 51.7062H80.5735Z" fill="white"/>
<path d="M60.7032 53.917C60.4844 53.3175 60.2523 52.6822 60.0308 52.0138C59.9165 51.6695 59.8056 51.3167 59.6983 50.9552C59.1716 49.154 58.7919 47.1462 58.9548 44.983C59.0266 44.0379 59.1211 43.1352 59.2288 42.2576C59.413 40.7662 59.6378 39.3545 59.8573 37.9725C60.4491 34.2546 60.9599 31.0443 60.3793 27.9293C59.7422 24.507 57.813 21.5669 54.3076 18.68C51.7046 16.5338 50.4311 17.0077 49.0831 17.5093C48.019 17.9056 46.81 18.3546 44.4279 17.5768C43.401 17.238 42.3982 16.8281 41.4266 16.3501C41.1672 16.2237 40.9125 16.0952 40.6624 15.9646C40.564 15.9133 40.4629 15.8613 40.3685 15.8093C39.4182 15.3023 38.5317 14.7757 37.6944 14.2775C36.7388 13.709 35.8283 13.1682 34.9345 12.72C34.6206 12.5626 34.3094 12.4175 33.9982 12.2858C33.6656 12.1454 33.3331 12.0219 33.0006 11.9179C31.9924 11.6013 30.9776 11.4689 29.9129 11.6175C27.0346 12.0192 24.1976 14.4172 20.7121 19.3929C20.0677 20.3125 19.5071 21.4379 18.9166 22.6295C17.4202 25.6332 15.7244 29.0378 11.8978 31.0835C9.2849 32.4803 7.53454 34.6198 6.69726 37.4439C5.95841 39.9324 5.98235 42.8976 6.76377 46.018C7.84577 50.3287 10.2991 54.6597 13.4939 57.9003C16.42 60.8661 19.7332 62.6937 23.0039 63.1663C23.3089 63.2113 23.6135 63.2437 23.9176 63.2635C24.1787 63.2815 24.4392 63.2905 24.699 63.2905H24.8653C31.9146 63.1866 34.9631 61.5312 37.4118 60.2018C39.7593 58.9265 41.4558 58.0056 45.7732 58.8576C55.8345 60.8418 59.8799 60.9728 61.2319 59.3559C62.2454 58.1413 61.5651 56.278 60.7032 53.917ZM60.3973 58.6342C59.9417 59.1783 58.6895 59.4133 56.6731 59.3336C54.3388 59.2404 50.9419 58.7415 45.982 57.7633C41.2823 56.8356 39.2493 57.9401 36.895 59.2182C34.5508 60.4914 31.6333 62.0753 24.8493 62.1752H24.8314H24.6984C24.439 62.1752 24.1787 62.1655 23.9176 62.1462C23.6135 62.1232 23.3089 62.0872 23.0039 62.0382C20.0212 61.5656 16.9793 59.8575 14.2713 57.1097C11.2122 54.0041 8.86393 49.8609 7.82848 45.7385C7.09694 42.8132 7.06569 40.0539 7.74668 37.7592C8.49684 35.2322 10.065 33.3155 12.4086 32.0624C16.5451 29.8514 18.4025 26.1213 19.8948 23.1264C20.4694 21.9733 21.0121 20.8836 21.6086 20.0323C25.8788 13.9352 28.4797 12.936 30.0645 12.7146C30.3069 12.6806 30.5513 12.6637 30.796 12.6639C31.2052 12.6659 31.6131 12.7112 32.013 12.7989C32.3647 12.8749 32.7109 12.9751 33.0492 13.0987C33.3617 13.2115 33.6763 13.3438 33.9962 13.4923C34.9824 13.95 36.0119 14.5617 37.1418 15.2341C37.7775 15.6122 38.4399 16.0058 39.1369 16.3967L39.4927 16.5932C39.8305 16.7791 40.1772 16.9618 40.5328 17.1414C41.5472 17.6612 42.5945 18.1123 43.6677 18.4916C43.8078 18.5416 43.9495 18.5898 44.0927 18.6361C46.1277 19.2998 47.4544 19.1722 48.4819 18.8846C48.8384 18.7846 49.1589 18.6658 49.4602 18.5538C50.6865 18.0974 51.4972 17.7956 53.6166 19.5435C56.9092 22.2575 58.7161 24.9891 59.3026 28.1379C59.7096 30.324 59.5347 32.6208 59.1803 35.1518V35.1559C59.0606 36.0079 58.9202 36.8869 58.7753 37.797C58.6303 38.707 58.4747 39.6873 58.331 40.7C58.198 41.6277 58.077 42.5904 57.9766 43.5916C57.9322 44.0214 57.8941 44.4571 57.8622 44.8987C57.6873 47.2238 58.0843 49.3457 58.6356 51.2368C58.7407 51.5973 58.8517 51.9497 58.9681 52.2934C59.2015 53.0009 59.4463 53.6713 59.677 54.3039C60.4126 56.3239 60.9951 57.9192 60.3973 58.6342Z" fill="white"/>
</svg>
