<?xml version="1.0" encoding="utf-8"?>
<!-- Generator: Adobe Illustrator 25.2.1, SVG Export Plug-In . SVG Version: 6.00 Build 0)  -->
<svg version="1.1" id="图层_1" xmlns="http://www.w3.org/2000/svg" xmlns:xlink="http://www.w3.org/1999/xlink" x="0px" y="0px"
	 viewBox="0 0 32 32" style="enable-background:new 0 0 32 32;" xml:space="preserve">
<style type="text/css">
	.st0{opacity:0.49;}
</style>
<g>
	<path d="M4.2,24.3c-0.2,0-0.5,0-0.7,0c-0.6,0-1.1-0.6-1.1-1.2C2.4,22.5,3,22,3.6,22c1.1,0,2.3,0,3.4-0.2c0.6-0.2,1.1-0.6,1.4-1.1
		c0.6-1,1.1-2.1,1.5-3.3c0.4-1.2,0.8-2.5,1.1-3.7c0.2-0.5,0.3-1.1,0.5-1.6l0.1-0.2c0.4-1.3,0.8-2.6,1.4-3.9c0.5-0.9,1.5-1.4,2.4-1.2
		c0.8,0.2,1.2,1,1.3,1.2c0.9,1.7,1.4,3.6,1.9,5.4c0.1,0.5,0.3,1,0.4,1.6c0.5,1.9,1.2,3.7,2,5.4c0.5,0.9,1.4,1.5,2.5,1.6
		c1.5,0.1,2.9,0.1,4.3,0.1c0.7,0,1.3,0,2,0c0.6,0,1.1,0.5,1.1,1.2c0,0.6-0.5,1.1-1.2,1.1c0,0,0,0,0,0c-0.7,0-1.3,0-2,0
		c-1.4,0-3,0-4.4-0.1c-1.8-0.1-3.5-1.1-4.4-2.8c-0.9-1.9-1.7-3.8-2.2-5.8c-0.1-0.5-0.3-1-0.4-1.6c-0.4-1.5-0.8-3.1-1.5-4.6
		c-0.5,1-0.8,2-1.1,3l-0.1,0.2c-0.1,0.5-0.3,1-0.5,1.6c-0.4,1.3-0.7,2.6-1.2,3.8c-0.4,1.3-1,2.6-1.7,3.8c-0.6,1-1.6,1.8-2.8,2.1
		l-0.1,0C6.4,24.2,5.3,24.3,4.2,24.3z"/>
</g>
<g class="st0">
	<path d="M3.6,24.3c-0.1,0-0.1,0-0.2,0c-0.6-0.1-1.1-0.7-1-1.3c0.3-2.4,0.7-4.4,1.1-5.9c0.3-1.3,0.8-2.5,1.5-3.7l0.1-0.1
		c0.6-0.8,1.2-1.2,2-1.3c1.1-0.1,2.1,0.5,2.9,1.1c0.7,0.6,1.4,1.3,2,1.9c0.2,0.2,0.5,0.5,0.7,0.7c0.9,0.9,2,1.8,3,2.6
		c2.1,1.5,4.6,2.5,7.2,2.9c2.3,0.4,4.7,0.6,7,0.7c0.6,0,1.1,0.5,1.1,1.2c0,0.6-0.5,1.1-1.1,1.1c0,0,0,0,0,0
		c-2.4-0.1-4.9-0.3-7.3-0.7c-2.9-0.5-5.7-1.6-8.2-3.3c-1.2-0.8-2.3-1.8-3.3-2.8c-0.2-0.2-0.5-0.5-0.7-0.7c-0.6-0.6-1.2-1.2-1.9-1.8
		c-0.7-0.6-1-0.6-1.1-0.6c-0.1,0-0.3,0.1-0.4,0.3c-0.6,0.9-1,1.9-1.2,2.9c-0.4,1.5-0.7,3.4-1,5.7C4.6,23.9,4.1,24.3,3.6,24.3z"/>
</g>
</svg>
