<?xml version="1.0" encoding="UTF-8" standalone="no"?>
<!DOCTYPE svg PUBLIC "-//W3C//DTD SVG 1.1//EN" "http://www.w3.org/Graphics/SVG/1.1/DTD/svg11.dtd">
<svg width="100%" height="100%" viewBox="0 0 184 100" version="1.1" xmlns="http://www.w3.org/2000/svg" xmlns:xlink="http://www.w3.org/1999/xlink" xml:space="preserve" xmlns:serif="http://www.serif.com/" style="fill-rule:evenodd;clip-rule:evenodd;stroke-linejoin:round;stroke-miterlimit:2;">
    <g transform="matrix(1,0,0,1,-3.5,0)">
        <path d="M116.328,46.191C117.264,46.465 118.022,46.803 118.592,47.241C119.121,47.652 119.391,48.081 119.4,48.541L119.42,49.513C119.429,49.954 119.137,50.275 118.549,50.456C117.961,50.636 117.245,50.614 116.413,50.373C116.043,50.264 115.675,50.15 115.307,50.034C115.324,50.876 115.34,51.719 115.357,52.562C114.72,52.355 114.088,52.131 113.461,51.891L113.33,45.172C114.317,45.555 115.316,45.895 116.328,46.191ZM117.515,48.125C117.515,47.95 117.407,47.784 117.203,47.623C116.962,47.445 116.689,47.315 116.399,47.239C116.012,47.13 115.626,47.011 115.242,46.882C115.257,47.599 115.271,48.315 115.285,49.03C115.669,49.155 116.054,49.274 116.442,49.386C116.692,49.471 116.961,49.487 117.22,49.432C117.432,49.374 117.538,49.267 117.534,49.103C117.527,48.778 117.521,48.452 117.515,48.125Z" style="fill-rule:nonzero;"/>
    </g>
    <g transform="matrix(1,0,0,1,-3.5,0)">
        <path d="M113.203,44.99L113.375,45.057C114.358,45.439 115.354,45.778 116.362,46.073C117.306,46.349 118.08,46.693 118.666,47.143L118.667,47.143C119.211,47.566 119.513,48.026 119.523,48.539L119.543,49.511C119.548,49.762 119.466,49.983 119.299,50.166C119.134,50.345 118.892,50.48 118.585,50.574C117.967,50.763 117.226,50.737 116.379,50.492L116.378,50.492C116.062,50.398 115.748,50.302 115.434,50.203C115.449,50.988 115.465,51.773 115.48,52.559L115.484,52.732L115.319,52.679C114.68,52.472 114.045,52.247 113.416,52.006L113.339,51.976L113.203,44.99ZM113.457,45.353L113.582,51.805C114.128,52.013 114.677,52.208 115.231,52.391C115.215,51.605 115.199,50.82 115.184,50.036L115.181,49.864L115.344,49.916C115.711,50.033 116.079,50.146 116.448,50.255C117.264,50.491 117.954,50.509 118.513,50.338C118.794,50.251 118.992,50.135 119.117,49.999C119.24,49.865 119.3,49.705 119.296,49.516L119.277,48.544C119.269,48.136 119.03,47.738 118.516,47.339C117.963,46.914 117.222,46.581 116.293,46.31C115.336,46.03 114.391,45.711 113.457,45.353ZM115.116,46.71L115.281,46.765C115.663,46.893 116.046,47.011 116.431,47.12C116.736,47.2 117.023,47.337 117.276,47.524L117.278,47.525L117.279,47.526C117.495,47.696 117.637,47.894 117.638,48.124C117.644,48.45 117.65,48.775 117.657,49.1C117.659,49.212 117.624,49.313 117.547,49.393C117.473,49.469 117.37,49.519 117.252,49.551L117.249,49.552L117.245,49.552C116.966,49.612 116.675,49.595 116.405,49.503C116.017,49.391 115.631,49.273 115.247,49.148L115.164,49.121L115.162,49.033C115.148,48.317 115.133,47.601 115.119,46.885L115.116,46.71ZM115.369,47.054C115.381,47.683 115.394,48.312 115.406,48.94C115.761,49.055 116.117,49.164 116.476,49.267L116.479,49.268L116.481,49.269C116.71,49.347 116.955,49.362 117.191,49.312C117.283,49.286 117.338,49.254 117.369,49.222C117.397,49.193 117.411,49.158 117.41,49.106L117.41,49.105C117.404,48.78 117.397,48.454 117.391,48.127L117.391,48.125C117.391,48.005 117.319,47.872 117.128,47.721C116.9,47.553 116.642,47.43 116.368,47.359L116.365,47.358C116.032,47.263 115.7,47.162 115.369,47.054Z"/>
    </g>
    <g transform="matrix(1,0,0,1,-3.5,0)">
        <path d="M126.48,54.347C124.67,54.335 122.862,54.191 121.073,53.916C121.027,51.686 120.981,49.456 120.936,47.226C121.593,47.33 122.252,47.416 122.912,47.484C122.951,49.378 122.991,51.269 123.029,53.159C124.169,53.273 125.312,53.335 126.46,53.342C126.467,53.679 126.473,54.014 126.48,54.347Z" style="fill-rule:nonzero;"/>
    </g>
    <g transform="matrix(1,0,0,1,-3.5,0)">
        <path d="M120.811,47.081L120.956,47.104C121.611,47.207 122.268,47.293 122.926,47.361L123.034,47.373L123.036,47.481C123.075,49.338 123.113,51.193 123.152,53.047C124.251,53.154 125.354,53.211 126.462,53.219L126.582,53.219L126.584,53.34C126.591,53.676 126.598,54.011 126.605,54.344L126.608,54.471L126.481,54.47C124.664,54.458 122.851,54.313 121.055,54.037L120.953,54.021L120.951,53.918C120.905,51.688 120.859,49.458 120.814,47.228L120.811,47.081ZM121.063,47.37C121.107,49.517 121.151,51.663 121.195,53.809C122.904,54.067 124.628,54.205 126.356,54.222C126.35,53.971 126.345,53.718 126.34,53.464C125.229,53.453 124.122,53.392 123.018,53.281L122.91,53.27L122.907,53.161C122.869,51.308 122.831,49.452 122.792,47.595C122.215,47.534 121.638,47.459 121.063,47.37Z"/>
    </g>
    <g transform="matrix(1,0,0,1,-3.5,0)">
        <path d="M130.378,52.636C130.228,53.162 130.077,53.687 129.926,54.211C129.235,54.27 128.544,54.31 127.852,54.331C128.554,52.087 129.257,49.823 129.959,47.539C130.871,47.46 131.781,47.347 132.689,47.2C133.468,49.298 134.243,51.37 135.016,53.416C134.328,53.572 133.638,53.71 132.944,53.827C132.78,53.344 132.615,52.859 132.451,52.374C131.761,52.481 131.07,52.568 130.378,52.636ZM131.209,49.469C131.027,50.19 130.846,50.91 130.665,51.627C131.158,51.575 131.648,51.513 132.136,51.442C131.926,50.774 131.716,50.104 131.507,49.432C131.461,49.289 131.248,49.312 131.209,49.469Z" style="fill-rule:nonzero;"/>
    </g>
    <g transform="matrix(1,0,0,1,-3.5,0)">
        <path d="M132.77,47.063L132.805,47.158C133.584,49.254 134.359,51.326 135.131,53.373L135.181,53.505L135.043,53.536C134.354,53.693 133.661,53.831 132.965,53.949L132.861,53.967L132.828,53.867C132.674,53.416 132.521,52.964 132.368,52.512C131.738,52.607 131.106,52.687 130.474,52.75C130.331,53.25 130.188,53.748 130.045,54.245L130.021,54.326L129.937,54.334C129.244,54.393 128.55,54.433 127.856,54.454L127.683,54.459L127.734,54.294C128.437,52.05 129.139,49.787 129.841,47.503L129.866,47.423L129.948,47.416C130.858,47.338 131.765,47.225 132.67,47.079L132.77,47.063ZM130.052,47.655C129.376,49.856 128.699,52.038 128.022,54.202C128.625,54.181 129.229,54.145 129.831,54.095C129.975,53.598 130.117,53.101 130.26,52.602L130.283,52.521L130.366,52.513C131.057,52.445 131.745,52.358 132.433,52.252L132.535,52.237L132.568,52.335C132.721,52.786 132.874,53.238 133.027,53.688C133.638,53.583 134.245,53.462 134.851,53.327C134.107,51.354 133.36,49.358 132.609,47.338C131.759,47.474 130.907,47.579 130.052,47.655ZM131.341,49.216C131.452,49.203 131.581,49.257 131.625,49.395L131.625,49.396C131.834,50.067 132.044,50.737 132.254,51.405L132.297,51.542L132.154,51.564C131.665,51.636 131.173,51.698 130.678,51.75L130.503,51.769L130.546,51.597C130.727,50.88 130.908,50.16 131.09,49.44C131.123,49.307 131.231,49.229 131.341,49.216ZM131.37,49.461C131.352,49.463 131.335,49.475 131.329,49.499L131.329,49.5C131.162,50.163 130.995,50.825 130.828,51.486C131.212,51.443 131.594,51.395 131.975,51.34C131.78,50.719 131.585,50.095 131.39,49.47C131.388,49.464 131.386,49.463 131.386,49.463C131.384,49.462 131.379,49.46 131.37,49.461Z"/>
    </g>
    <g transform="matrix(1,0,0,1,-3.5,0)">
        <path d="M137.108,50.084C136.216,49.048 135.317,47.979 134.412,46.877C135.134,46.725 135.852,46.551 136.567,46.357C137.064,47.02 137.559,47.672 138.052,48.314C138.51,47.372 138.965,46.42 139.418,45.458C140.123,45.205 140.822,44.931 141.516,44.636C140.699,46.28 139.873,47.893 139.039,49.475C139.057,50.4 139.076,51.325 139.094,52.249C138.455,52.472 137.812,52.677 137.165,52.865L137.108,50.084Z" style="fill-rule:nonzero;"/>
    </g>
    <g transform="matrix(1,0,0,1,-3.5,0)">
        <path d="M141.775,44.391L141.626,44.69C140.814,46.326 139.992,47.931 139.162,49.504C139.181,50.419 139.199,51.333 139.217,52.247L139.219,52.336L139.135,52.366C138.494,52.589 137.848,52.795 137.199,52.984L137.045,53.028L136.986,50.131C136.102,49.105 135.213,48.046 134.317,46.955L134.188,46.798L134.386,46.756C135.106,46.604 135.822,46.432 136.534,46.238L136.615,46.216L136.665,46.283C137.121,46.891 137.576,47.49 138.028,48.081C138.456,47.197 138.882,46.305 139.306,45.405L139.328,45.359L139.376,45.342C140.079,45.089 140.776,44.816 141.468,44.522L141.775,44.391ZM139.508,45.557C139.062,46.503 138.613,47.44 138.163,48.368L138.075,48.547L137.954,48.389C137.477,47.768 136.999,47.138 136.518,46.498C135.893,46.666 135.266,46.819 134.636,46.955C135.497,48.001 136.352,49.018 137.201,50.003L137.23,50.037L137.284,52.702C137.849,52.535 138.411,52.355 138.969,52.162C138.951,51.268 138.933,50.372 138.915,49.477L138.914,49.445L138.929,49.417C139.713,47.932 140.489,46.419 141.258,44.878C140.678,45.118 140.095,45.345 139.508,45.557Z"/>
    </g>
    <g transform="matrix(1,0,0,1,-3.5,0)">
        <path d="M151.702,51.904C151.13,51.655 150.635,51.256 150.271,50.748C149.881,50.223 149.688,49.719 149.688,49.25L149.688,45.324C149.688,44.845 149.882,44.539 150.274,44.394C150.666,44.248 151.141,44.301 151.702,44.541C152.266,44.779 152.763,45.152 153.15,45.627C153.549,46.114 153.751,46.589 153.75,47.064L153.75,47.886C153.299,47.726 152.85,47.556 152.403,47.376L152.403,46.532C152.393,46.335 152.316,46.148 152.185,46.001C152.047,45.825 151.866,45.686 151.661,45.598C151.457,45.51 151.285,45.496 151.143,45.555C151.075,45.582 151.018,45.63 150.98,45.692C150.942,45.754 150.924,45.827 150.931,45.9L150.931,49.838C150.94,50.035 151.015,50.223 151.143,50.372C151.277,50.552 151.456,50.694 151.661,50.783C151.864,50.871 152.039,50.883 152.185,50.823C152.254,50.796 152.312,50.747 152.352,50.684C152.391,50.621 152.409,50.548 152.403,50.474L152.403,49.06C152.163,48.963 151.925,48.864 151.688,48.763L151.688,47.667C152.369,47.96 153.056,48.229 153.75,48.474L153.75,50.988C153.75,51.466 153.547,51.802 153.143,51.983C152.74,52.165 152.258,52.142 151.702,51.904Z" style="fill-rule:nonzero;"/>
    </g>
    <g transform="matrix(1,0,0,1,-3.5,0)">
        <path d="M151.653,44.654C151.107,44.421 150.667,44.379 150.317,44.51C150.142,44.574 150.019,44.672 149.938,44.8C149.856,44.93 149.811,45.101 149.811,45.324L149.811,49.25C149.811,49.685 149.99,50.163 150.37,50.675L150.37,50.676L150.371,50.676C150.722,51.166 151.199,51.551 151.751,51.792C152.286,52.02 152.731,52.035 153.093,51.871C153.275,51.789 153.406,51.675 153.493,51.533C153.58,51.39 153.627,51.21 153.627,50.989L153.627,48.562C153.016,48.344 152.411,48.108 151.811,47.854L151.811,48.682C152.023,48.772 152.236,48.86 152.449,48.946L152.527,48.977L152.527,50.469C152.533,50.568 152.509,50.666 152.456,50.75C152.403,50.835 152.324,50.901 152.231,50.938C152.045,51.014 151.834,50.992 151.612,50.897L151.611,50.897C151.388,50.799 151.194,50.645 151.047,50.45C150.903,50.28 150.819,50.067 150.808,49.844L150.808,45.906C150.8,45.808 150.824,45.711 150.875,45.628C150.927,45.543 151.005,45.478 151.097,45.441C151.281,45.364 151.489,45.39 151.709,45.485C151.933,45.581 152.129,45.731 152.279,45.922C152.428,46.089 152.515,46.302 152.527,46.526L152.527,47.292C152.892,47.439 153.259,47.579 153.627,47.711L153.627,47.064C153.627,46.627 153.443,46.178 153.055,45.706L153.055,45.705C152.68,45.246 152.199,44.886 151.654,44.655L151.653,44.654ZM151.75,44.428C151.174,44.181 150.665,44.117 150.231,44.278C150.014,44.359 149.844,44.487 149.73,44.668C149.616,44.847 149.564,45.068 149.564,45.324L149.564,49.25C149.564,49.754 149.771,50.282 150.171,50.821C150.549,51.346 151.06,51.76 151.653,52.018L151.654,52.018C152.23,52.265 152.75,52.296 153.194,52.096C153.416,51.997 153.588,51.852 153.703,51.661C153.819,51.472 153.873,51.245 153.873,50.989L153.873,48.387L153.791,48.358C153.1,48.114 152.415,47.846 151.737,47.554L151.565,47.481L151.565,48.845L151.64,48.877C151.852,48.968 152.066,49.056 152.28,49.143L152.28,50.479L152.281,50.484C152.284,50.531 152.273,50.579 152.247,50.619C152.222,50.66 152.184,50.691 152.14,50.709L152.138,50.709C152.033,50.752 151.895,50.75 151.71,50.671C151.524,50.589 151.363,50.461 151.242,50.299L151.24,50.295L151.237,50.292C151.127,50.164 151.063,50.004 151.055,49.835L151.055,45.895L151.054,45.889C151.05,45.843 151.061,45.797 151.085,45.757C151.109,45.717 151.146,45.687 151.189,45.67L151.191,45.669C151.29,45.627 151.425,45.631 151.612,45.712L151.612,45.712C151.799,45.792 151.963,45.918 152.088,46.078L152.091,46.081L152.093,46.084C152.205,46.209 152.271,46.368 152.28,46.535L152.28,47.459L152.357,47.49C152.806,47.671 153.256,47.842 153.709,48.003L153.873,48.061L153.873,47.064C153.874,46.552 153.656,46.05 153.246,45.549C152.846,45.059 152.332,44.674 151.75,44.428Z"/>
    </g>
    <g transform="matrix(1,0,0,1,-3.5,0)">
        <path d="M156.983,46.397C157.727,46.582 158.279,46.862 158.626,47.265C158.939,47.626 159.105,48.092 159.09,48.57L159.09,49.615C159.09,50.124 158.85,50.512 158.37,50.766C158.703,51.881 159.036,52.991 159.369,54.096C158.881,54.01 158.396,53.914 157.912,53.807C157.638,52.845 157.368,51.879 157.1,50.909L156.98,50.879C156.723,50.815 156.467,50.748 156.211,50.679L156.211,53.388C155.767,53.266 155.326,53.136 154.887,52.996L154.887,45.805C155.582,46.025 156.28,46.222 156.983,46.397ZM157.783,48.32C157.783,47.902 157.527,47.639 157.018,47.513C156.749,47.447 156.481,47.377 156.214,47.304L156.214,49.606C156.481,49.68 156.749,49.75 157.018,49.817C157.107,49.844 157.201,49.854 157.294,49.844C157.387,49.835 157.478,49.807 157.56,49.763C157.63,49.725 157.688,49.668 157.727,49.599C157.766,49.53 157.786,49.451 157.783,49.372L157.783,48.32Z" style="fill-rule:nonzero;"/>
    </g>
    <g transform="matrix(1,0,0,1,-3.5,0)">
        <path d="M154.764,45.637L154.924,45.687C155.617,45.907 156.313,46.103 157.013,46.277L157.013,46.277C157.769,46.465 158.348,46.754 158.719,47.184C159.053,47.568 159.229,48.064 159.214,48.572L159.214,49.614C159.214,49.889 159.148,50.137 159.015,50.351C158.897,50.54 158.729,50.698 158.516,50.825C158.84,51.908 159.163,52.987 159.487,54.06L159.545,54.252L159.348,54.217C158.858,54.131 158.371,54.035 157.886,53.928L157.814,53.912L157.794,53.841C157.527,52.901 157.262,51.958 157,51.011L156.951,50.999L156.95,50.999C156.745,50.948 156.539,50.895 156.334,50.84L156.334,53.549L156.179,53.507C155.733,53.384 155.29,53.254 154.85,53.114L154.764,53.087L154.764,45.637ZM155.01,45.973L155.01,52.906C155.368,53.018 155.727,53.125 156.088,53.225L156.088,50.517L156.243,50.56C156.498,50.629 156.754,50.696 157.01,50.76L157.01,50.76L157.199,50.806L157.219,50.876C157.48,51.822 157.744,52.764 158.011,53.702C158.404,53.788 158.798,53.867 159.193,53.939C158.879,52.898 158.566,51.852 158.252,50.801L158.223,50.704L158.312,50.657C158.537,50.538 158.699,50.391 158.806,50.22C158.912,50.05 158.967,49.849 158.967,49.614L158.967,48.566C158.981,48.119 158.826,47.683 158.533,47.346L158.533,47.345C158.209,46.97 157.686,46.699 156.954,46.516C156.302,46.355 155.655,46.173 155.01,45.973ZM156.091,47.142L156.247,47.185C156.513,47.258 156.779,47.327 157.047,47.393C157.315,47.46 157.531,47.565 157.681,47.722C157.833,47.881 157.907,48.084 157.907,48.32L157.907,49.37C157.91,49.472 157.885,49.572 157.834,49.66C157.783,49.749 157.709,49.822 157.619,49.871L157.56,49.763L157.619,49.871L157.619,49.871C157.522,49.923 157.416,49.956 157.307,49.967C157.198,49.978 157.089,49.967 156.985,49.936C156.986,49.936 156.987,49.936 156.988,49.936L157.018,49.817L156.981,49.935C156.983,49.935 156.984,49.935 156.985,49.936C156.717,49.869 156.449,49.799 156.182,49.725L156.091,49.7L156.091,47.142ZM156.338,47.465L156.338,49.512C156.574,49.576 156.81,49.638 157.048,49.697L157.054,49.699C157.128,49.722 157.205,49.729 157.282,49.722C157.359,49.714 157.433,49.691 157.501,49.654L157.501,49.654C157.551,49.627 157.592,49.587 157.62,49.538C157.648,49.489 157.662,49.433 157.66,49.376L157.66,48.32C157.66,48.139 157.606,48 157.503,47.892C157.397,47.782 157.23,47.693 156.988,47.633C156.771,47.579 156.554,47.523 156.338,47.465Z"/>
    </g>
    <g transform="matrix(1,0,0,1,-3.5,0)">
        <path d="M162.455,47.214C163.017,47.248 163.554,47.459 163.99,47.816C164.412,48.17 164.623,48.579 164.623,49.05L164.623,52.976C164.623,53.454 164.41,53.858 163.986,54.175C163.562,54.493 163.052,54.632 162.455,54.581C161.884,54.541 161.344,54.304 160.928,53.911C160.512,53.52 160.304,53.081 160.304,52.608L160.304,48.682C160.304,48.203 160.514,47.83 160.935,47.55C161.357,47.27 161.864,47.164 162.455,47.214ZM163.199,48.969C163.197,48.881 163.176,48.794 163.137,48.716C163.097,48.637 163.041,48.568 162.971,48.515C162.816,48.382 162.622,48.303 162.419,48.29C162.225,48.266 162.028,48.312 161.864,48.418C161.793,48.461 161.735,48.522 161.695,48.594C161.655,48.666 161.634,48.747 161.634,48.83L161.634,52.766C161.636,52.856 161.657,52.944 161.697,53.024C161.737,53.104 161.794,53.175 161.864,53.23C162.018,53.367 162.213,53.449 162.419,53.463C162.614,53.487 162.81,53.438 162.971,53.326C163.041,53.28 163.099,53.217 163.139,53.143C163.179,53.069 163.199,52.986 163.199,52.902L163.199,48.969Z" style="fill-rule:nonzero;"/>
    </g>
    <g transform="matrix(1,0,0,1,-3.5,0)">
        <path d="M162.444,47.337C161.874,47.289 161.396,47.392 161.003,47.653C160.613,47.911 160.426,48.248 160.426,48.682L160.426,52.608C160.426,53.041 160.615,53.448 161.012,53.821L161.012,53.822C161.407,54.195 161.92,54.42 162.463,54.458L162.465,54.458C163.034,54.507 163.515,54.374 163.912,54.077C164.308,53.78 164.499,53.411 164.499,52.976L164.499,49.05C164.499,48.622 164.31,48.246 163.91,47.911C163.495,47.57 162.983,47.37 162.447,47.338L162.444,47.337ZM162.463,47.091C161.851,47.04 161.316,47.149 160.867,47.447C160.414,47.748 160.18,48.158 160.18,48.682L160.18,52.608C160.18,53.122 160.407,53.591 160.843,54.001C161.28,54.414 161.846,54.662 162.445,54.704C163.068,54.757 163.609,54.611 164.059,54.274C164.511,53.936 164.745,53.497 164.745,52.976L164.745,49.05C164.745,48.536 164.513,48.094 164.068,47.722L164.067,47.721C163.612,47.347 163.051,47.127 162.463,47.091ZM162.43,48.167C162.657,48.183 162.874,48.271 163.048,48.419C163.131,48.484 163.199,48.566 163.246,48.66C163.294,48.756 163.319,48.86 163.321,48.967L163.321,52.902C163.322,53.006 163.296,53.109 163.247,53.202C163.197,53.293 163.126,53.371 163.039,53.428C162.855,53.557 162.629,53.613 162.406,53.586C162.176,53.569 161.957,53.478 161.784,53.325C161.701,53.258 161.633,53.174 161.586,53.079C161.538,52.983 161.512,52.877 161.51,52.769L161.51,48.83M162.403,48.413C162.237,48.392 162.07,48.431 161.93,48.522L161.929,48.523L161.927,48.524C161.875,48.556 161.832,48.601 161.802,48.654C161.772,48.708 161.756,48.768 161.756,48.83L161.756,52.765C161.758,52.836 161.775,52.906 161.806,52.969C161.838,53.033 161.884,53.089 161.939,53.134L161.942,53.136L161.944,53.138C162.079,53.257 162.248,53.328 162.427,53.34L162.434,53.341C162.598,53.361 162.764,53.32 162.899,53.225L162.903,53.222C162.956,53.188 163,53.14 163.03,53.085C163.06,53.029 163.075,52.966 163.075,52.903L163.075,48.97C163.073,48.901 163.057,48.833 163.026,48.771C162.995,48.709 162.95,48.655 162.895,48.612L162.893,48.611L162.89,48.608C162.755,48.493 162.587,48.425 162.41,48.413L162.403,48.413Z"/>
    </g>
    <g transform="matrix(1,0,0,1,-3.5,0)">
        <path d="M167.977,54.611C167.375,54.655 166.864,54.511 166.446,54.19C166.027,53.87 165.816,53.467 165.815,52.992L165.815,47.431C166.262,47.425 166.708,47.411 167.154,47.39L167.154,52.94C167.154,53.025 167.175,53.108 167.215,53.183C167.255,53.257 167.314,53.321 167.384,53.367C167.547,53.481 167.744,53.532 167.941,53.512C168.145,53.501 168.34,53.421 168.493,53.286C168.563,53.231 168.619,53.161 168.658,53.082C168.697,53.002 168.719,52.915 168.72,52.827L168.72,47.276C169.193,47.232 169.666,47.177 170.138,47.112L170.138,52.673C170.138,53.155 169.928,53.592 169.505,53.971C169.083,54.352 168.544,54.578 167.977,54.611Z" style="fill-rule:nonzero;"/>
    </g>
    <g transform="matrix(1,0,0,1,-3.5,0)">
        <path d="M170.261,46.97L170.261,52.673C170.261,53.196 170.032,53.664 169.588,54.062L169.588,54.062L169.506,53.971L169.588,54.062L169.588,54.062C169.145,54.462 168.58,54.699 167.985,54.734L167.986,54.734L167.977,54.611L167.97,54.488C168.509,54.456 169.022,54.241 169.423,53.879L169.423,53.879C169.824,53.519 170.015,53.114 170.015,52.673L170.015,47.253C170.062,47.247 170.108,47.24 170.155,47.234L170.138,47.112L170.015,47.112L170.015,47.253C169.625,47.305 169.234,47.35 168.844,47.388L168.844,47.276L168.72,47.276L168.732,47.399C168.769,47.396 168.806,47.392 168.844,47.388L168.844,52.829C168.842,52.936 168.816,53.041 168.769,53.137C168.722,53.231 168.655,53.315 168.573,53.381C168.573,53.38 168.574,53.38 168.575,53.379L168.494,53.286L168.57,53.383C168.571,53.382 168.572,53.382 168.573,53.381C168.399,53.532 168.181,53.622 167.951,53.635C167.952,53.635 167.953,53.635 167.954,53.634L167.942,53.512L167.948,53.635C167.949,53.635 167.95,53.635 167.951,53.635C167.726,53.657 167.501,53.599 167.315,53.469C167.316,53.469 167.317,53.47 167.317,53.47L167.385,53.367L167.314,53.468C167.314,53.468 167.315,53.469 167.315,53.469C167.228,53.412 167.157,53.334 167.107,53.242C167.057,53.149 167.031,53.045 167.031,52.94L167.031,47.519C167.074,47.517 167.117,47.515 167.16,47.513L167.154,47.39L167.031,47.39L167.031,47.519C166.667,47.535 166.303,47.546 165.939,47.552L165.939,47.431L165.816,47.431L165.817,47.554C165.858,47.554 165.898,47.553 165.939,47.552L165.939,52.992L165.939,52.992L165.816,52.992L165.939,52.992L165.939,52.992C165.94,53.424 166.128,53.792 166.521,54.092C166.913,54.392 167.393,54.53 167.968,54.488L167.977,54.611L167.984,54.734L167.985,54.734C167.358,54.78 166.816,54.629 166.371,54.288C165.925,53.947 165.693,53.509 165.692,52.992L165.692,47.309L165.814,47.308C166.259,47.301 166.704,47.288 167.148,47.267L167.277,47.26L167.277,52.94C167.277,53.004 167.293,53.068 167.324,53.124C167.354,53.181 167.398,53.228 167.452,53.264L167.454,53.265L167.455,53.266C167.593,53.363 167.761,53.407 167.929,53.389L167.935,53.389C168.111,53.379 168.28,53.31 168.412,53.194L168.415,53.192L168.417,53.19C168.472,53.146 168.517,53.09 168.548,53.027C168.579,52.964 168.596,52.896 168.597,52.825L168.597,52.827L168.72,52.827L168.597,52.824L168.597,52.825L168.597,47.164L168.709,47.153C169.18,47.109 169.651,47.055 170.121,46.99L170.261,46.97Z"/>
    </g>
    <g transform="matrix(1,0,0,1,-3.5,0)">
        <path d="M172.855,46.626C173.449,48.106 174.04,49.573 174.629,51.027L174.629,46.187C175.072,46.066 175.514,45.936 175.953,45.797L175.953,52.993C175.481,53.143 175.007,53.282 174.53,53.411C173.92,52.041 173.306,50.653 172.69,49.247L172.69,53.853C172.242,53.948 171.793,54.035 171.342,54.113L171.342,46.915C171.848,46.832 172.352,46.735 172.855,46.626Z" style="fill-rule:nonzero;"/>
    </g>
    <g transform="matrix(1,0,0,1,-3.5,0)">
        <path d="M176.077,45.628L176.077,53.084L175.991,53.111C175.518,53.262 175.042,53.401 174.563,53.531L174.461,53.558L174.419,53.462C173.886,52.266 173.351,51.057 172.814,49.835L172.814,53.953L172.717,53.974C172.268,54.07 171.817,54.156 171.364,54.234L171.22,54.259L171.22,46.811L171.323,46.794C171.827,46.711 172.329,46.615 172.83,46.505L172.932,46.483L172.97,46.58C173.484,47.861 173.996,49.133 174.506,50.394L174.506,46.093L174.597,46.069C175.039,45.948 175.479,45.818 175.917,45.679L176.077,45.628ZM174.753,46.282L174.753,51.66L174.515,51.074C173.939,49.651 173.361,48.216 172.78,46.768C172.344,46.862 171.906,46.946 171.466,47.02L171.466,53.966C171.835,53.901 172.202,53.83 172.568,53.753L172.568,48.66L172.804,49.198C173.406,50.57 174.005,51.926 174.601,53.265C175.013,53.152 175.423,53.032 175.831,52.903L175.831,45.965C175.473,46.076 175.114,46.182 174.753,46.282Z"/>
    </g>
    <g transform="matrix(1,0,0,1,-3.5,0)">
        <path d="M135.953,36.744L135.953,33.999C137.687,35.55 139.638,36.839 141.744,37.826C142.555,36.51 144.215,34.502 145.412,33.497C143.017,32.627 140.765,31.403 138.733,29.863L145.026,29.863L145.026,25.298L138.58,25.298C138.509,25.298 138.438,25.285 138.372,25.257C138.307,25.23 138.247,25.19 138.196,25.14C138.146,25.089 138.106,25.029 138.079,24.963C138.052,24.898 138.038,24.827 138.038,24.756L138.038,14.393C138.038,14.369 138.043,14.345 138.052,14.322C138.061,14.299 138.075,14.278 138.092,14.261C138.11,14.244 138.13,14.23 138.153,14.221C138.176,14.211 138.2,14.207 138.224,14.207L142.598,14.207C142.72,14.207 142.836,14.158 142.923,14.072C143.009,13.986 143.057,13.869 143.057,13.747L143.057,10.184C143.057,10.062 143.009,9.945 142.923,9.858C142.836,9.772 142.72,9.724 142.598,9.724L138.038,9.724L138.038,7.817C138.038,7.677 137.982,7.543 137.883,7.444C137.784,7.344 137.65,7.289 137.51,7.289L132.813,7.289C132.672,7.289 132.538,7.344 132.439,7.444C132.34,7.543 132.284,7.677 132.284,7.817L132.284,9.537C132.284,9.562 132.28,9.586 132.27,9.609C132.261,9.631 132.247,9.652 132.23,9.669C132.213,9.687 132.192,9.7 132.169,9.71C132.147,9.719 132.122,9.724 132.098,9.724L121.203,9.724L121.203,7.781C121.203,7.712 121.189,7.643 121.163,7.579C121.136,7.515 121.097,7.456 121.049,7.407C121,7.358 120.941,7.319 120.877,7.293C120.813,7.266 120.745,7.252 120.675,7.252L116.094,7.252C115.954,7.252 115.82,7.308 115.72,7.407C115.621,7.506 115.566,7.641 115.566,7.781L115.566,9.54C115.566,9.589 115.546,9.637 115.511,9.672C115.476,9.707 115.429,9.726 115.379,9.726L111.007,9.726C110.885,9.726 110.768,9.775 110.682,9.861C110.596,9.947 110.547,10.064 110.547,10.186L110.547,13.751C110.547,13.811 110.559,13.871 110.582,13.927C110.605,13.983 110.639,14.033 110.682,14.076C110.725,14.119 110.775,14.153 110.831,14.176C110.887,14.199 110.946,14.211 111.007,14.211L115.38,14.211C115.43,14.211 115.477,14.23 115.512,14.265C115.547,14.3 115.567,14.348 115.567,14.397L115.567,24.76C115.567,24.904 115.509,25.042 115.408,25.144C115.306,25.245 115.168,25.302 115.024,25.302L108.346,25.302L108.346,29.864L115.065,29.864C113.057,31.526 110.547,32.918 108,33.807C109.159,34.85 110.781,36.822 111.553,38.097C113.676,37.208 115.684,35.933 117.499,34.425L117.499,36.745L123.754,36.745L123.754,38.329L112.052,38.329L112.052,42.891L141.783,42.891L141.783,38.329L129.466,38.329L129.466,36.745L135.953,36.744ZM121.203,14.21L132.283,14.21L132.283,16.445L121.201,16.445L121.203,14.21ZM121.203,19.062L132.283,19.062L132.283,20.474L121.201,20.474L121.203,19.062ZM121.203,23.025L132.283,23.025L132.283,25.298L121.201,25.298L121.203,23.025ZM123.749,30.404L123.749,32.377L119.694,32.377C120.454,31.586 121.164,30.747 121.818,29.865L132.086,29.865C132.764,30.739 133.485,31.578 134.248,32.377L129.461,32.377L129.461,30.404L123.749,30.404Z" style="fill-rule:nonzero;"/>
    </g>
    <g transform="matrix(1,0,0,1,-3.5,0)">
        <path d="M174.192,20.122C176.432,25.303 179.83,30.211 183.923,33.226C182.494,34.386 180.448,36.628 179.444,38.213C178.18,37.107 177.017,35.891 175.968,34.579L175.968,37.826L168.517,37.826L168.517,43.972L162.532,43.972L162.532,37.826L154.926,37.826L154.926,34.386C153.762,35.865 152.442,37.213 150.987,38.406C150.021,37.014 148.168,34.927 146.855,33.845C151.025,30.791 154.54,25.611 156.74,20.122L148.989,20.122C148.822,20.122 148.663,20.056 148.545,19.938C148.427,19.82 148.361,19.661 148.361,19.494L148.361,15.03C148.361,14.863 148.427,14.703 148.545,14.586C148.663,14.468 148.822,14.402 148.989,14.402L162.532,14.402L162.532,7.878C162.532,7.712 162.598,7.552 162.715,7.434C162.833,7.316 162.993,7.25 163.159,7.25L167.889,7.25C168.056,7.25 168.215,7.316 168.333,7.434C168.451,7.552 168.517,7.712 168.517,7.878L168.517,14.402L182.175,14.402C182.342,14.402 182.502,14.468 182.619,14.586C182.737,14.703 182.803,14.863 182.803,15.03L182.803,19.494C182.803,19.661 182.737,19.82 182.619,19.938C182.502,20.056 182.342,20.122 182.175,20.122L174.192,20.122ZM162.532,32.105L162.532,20.213C162.532,20.209 162.53,20.205 162.528,20.201C162.525,20.198 162.521,20.196 162.517,20.195C162.513,20.194 162.509,20.195 162.505,20.197C162.502,20.199 162.499,20.202 162.497,20.205C162.129,21.09 158.883,28.828 156.624,32.105L162.532,32.105ZM174.192,32.105C171.892,28.692 170.051,24.668 168.551,20.414C168.55,20.411 168.547,20.408 168.543,20.406C168.54,20.404 168.536,20.403 168.532,20.404C168.528,20.404 168.524,20.406 168.522,20.409C168.519,20.412 168.517,20.416 168.517,20.42L168.517,32.105L174.192,32.105Z" style="fill-rule:nonzero;"/>
    </g>
    <g transform="matrix(1,0,0,1,-3.5,0)">
        <path d="M120.743,77.341C119.623,77.727 118.504,78.114 117.384,78.462L117.384,87.005C117.384,89.324 117.075,90.677 115.801,91.488C114.569,92.34 112.944,92.533 110.666,92.533C110.214,90.703 109.803,89.14 109.315,87.546C110.241,87.585 111.286,87.585 111.631,87.585C112.056,87.585 112.172,87.43 112.172,87.009L112.172,80.202L109.353,81.091L108.121,75.679C109.28,75.408 110.668,75.06 112.176,74.635L112.176,68.567L108.451,68.567L108.451,63.425L112.176,63.425L112.176,56.928C112.176,56.775 112.236,56.629 112.344,56.521C112.452,56.413 112.598,56.352 112.751,56.352L116.817,56.352C116.97,56.352 117.116,56.413 117.224,56.521C117.332,56.629 117.392,56.775 117.392,56.928L117.392,63.425L120.404,63.425L120.404,68.567L117.392,68.567L117.392,73.128L119.902,72.393L120.743,77.341ZM137.578,84.067C139.625,85.807 142.559,87.275 145.493,88.126C144.373,89.092 142.79,91.063 142.018,92.378C139.586,91.411 137.308,89.829 135.378,87.894L135.378,93.151L130.049,93.151L130.049,87.932C127.549,90.071 124.648,91.687 121.515,92.688C120.743,91.411 119.199,89.398 118.079,88.358C121.632,87.507 125.068,85.961 127.5,84.067L121.168,84.067L121.168,79.583L130.049,79.583L130.049,77.61L121.555,77.61L121.555,68.985C121.555,68.761 121.643,68.547 121.801,68.388C121.96,68.23 122.174,68.141 122.397,68.141L132.323,68.141L132.323,77.302L133.063,77.302L133.063,68.146L143.298,68.146C143.522,68.146 143.736,68.234 143.894,68.393C144.052,68.551 144.141,68.766 144.141,68.989L144.141,77.611L135.378,77.611L135.378,79.585L144.644,79.585L144.644,84.069L137.578,84.067ZM143.448,67.02L122.35,67.02C122.15,67.02 121.959,66.941 121.818,66.8C121.677,66.659 121.597,66.467 121.597,66.267L121.597,58.454C121.598,58.255 121.677,58.063 121.818,57.922C121.959,57.781 122.15,57.702 122.35,57.702L143.448,57.702C143.647,57.702 143.838,57.781 143.979,57.922C144.121,58.063 144.2,58.255 144.2,58.454L144.2,66.267C144.2,66.467 144.121,66.659 143.98,66.8C143.839,66.941 143.647,67.02 143.448,67.02ZM127.771,71.852L125.647,71.852L125.647,73.862L127.771,73.862L127.771,71.852ZM135.532,61.531L129.585,61.531L129.585,63.193L135.532,63.193L135.532,61.531ZM137.462,73.862L139.702,73.862L139.702,71.852L137.462,71.852L137.462,73.862Z" style="fill-rule:nonzero;"/>
    </g>
    <g transform="matrix(1,0,0,1,-3.5,0)">
        <path d="M160.639,58.246C159.634,60.937 158.448,63.558 157.091,66.09L157.091,93.033L151.414,93.033L151.414,74.79C150.874,75.448 150.333,76.023 149.793,76.606C149.291,75.215 147.746,71.968 146.781,70.538C150.14,67.175 153.346,61.84 155.199,56.506L160.639,58.246ZM173.537,67.91L173.537,71.117L182.831,71.117L182.831,76.216L173.536,76.216L173.536,79.695L182.83,79.695L182.83,84.913L173.536,84.913L173.501,93.25L167.049,93.234L167.011,67.905C165.466,70.688 163.807,73.161 162.107,75.094C161.219,74.05 159.057,72.04 157.86,71.151C161.219,67.75 164.23,62.187 165.93,56.656L171.335,58.086C170.833,59.593 170.254,61.101 169.598,62.57L182.746,62.57C183.079,62.57 183.397,62.702 183.632,62.937C183.868,63.173 184,63.492 184,63.825L184,67.905L173.537,67.91Z" style="fill-rule:nonzero;"/>
    </g>
    <g transform="matrix(1,0,0,1,-3.5,0)">
        <path d="M181.155,49.152C181.155,49.626 180.962,50.131 180.575,50.655C180.215,51.159 179.727,51.557 179.161,51.806C178.489,52.094 177.811,52.359 177.127,52.603L177.127,45.406C177.81,45.162 178.488,44.896 179.161,44.608C179.722,44.367 180.194,44.317 180.578,44.468C180.962,44.618 181.153,44.923 181.153,45.395L181.155,49.152ZM178.426,51.039C178.685,50.935 178.944,50.828 179.202,50.716C179.407,50.628 179.584,50.486 179.715,50.305C179.841,50.155 179.915,49.967 179.925,49.771L179.925,46.007C179.932,45.934 179.914,45.861 179.876,45.798C179.838,45.736 179.78,45.688 179.712,45.661C179.571,45.602 179.401,45.615 179.202,45.702C178.944,45.812 178.685,45.919 178.426,46.025L178.426,51.039Z" style="fill-rule:nonzero;"/>
    </g>
    <g transform="matrix(1,0,0,1,-3.5,0)">
        <path d="M180.533,44.583C180.191,44.449 179.756,44.487 179.21,44.722L179.21,44.722C178.562,44.999 177.908,45.256 177.25,45.493L177.25,52.428C177.876,52.201 178.497,51.956 179.112,51.693C179.658,51.452 180.128,51.069 180.475,50.583L180.475,50.582L180.476,50.581C180.853,50.071 181.032,49.592 181.032,49.152C181.032,49.152 181.032,49.152 181.032,49.152L181.03,45.395C181.03,45.175 180.986,45.005 180.905,44.876C180.826,44.748 180.705,44.65 180.533,44.583ZM179.113,44.495C179.688,44.248 180.196,44.186 180.623,44.353C180.836,44.436 181.003,44.566 181.114,44.746C181.225,44.924 181.276,45.143 181.276,45.394L181.278,49.152C181.278,49.66 181.072,50.19 180.675,50.727C180.302,51.249 179.797,51.661 179.211,51.919L179.21,51.919L179.21,51.919C178.535,52.208 177.855,52.475 177.168,52.719L177.004,52.778L177.004,45.319L177.086,45.29C177.767,45.047 178.442,44.782 179.113,44.495ZM179.759,45.547C179.851,45.583 179.929,45.649 179.981,45.733C180.032,45.817 180.056,45.914 180.048,46.012L180.048,49.778C180.037,49.999 179.954,50.211 179.813,50.381C179.669,50.578 179.475,50.733 179.251,50.83C178.992,50.941 178.732,51.049 178.472,51.154L178.303,51.222L178.303,45.941L178.38,45.91C178.638,45.805 178.896,45.698 179.154,45.589C179.369,45.495 179.576,45.471 179.759,45.547ZM179.665,45.775C179.565,45.733 179.432,45.736 179.251,45.815L179.25,45.816C179.017,45.915 178.784,46.012 178.549,46.108L178.549,50.856C178.751,50.774 178.952,50.69 179.153,50.603C179.338,50.523 179.498,50.395 179.616,50.232L179.618,50.229L179.621,50.226C179.729,50.097 179.792,49.936 179.802,49.768L179.802,45.995C179.807,45.949 179.796,45.902 179.771,45.863C179.747,45.823 179.71,45.793 179.667,45.776L179.665,45.775Z"/>
    </g>
    <g transform="matrix(1,0,0,1,-3.5,0)">
        <path d="M51.162,26.953C44.198,26.953 38.532,32.707 38.532,39.776C38.532,46.845 44.2,52.598 51.162,52.598C58.125,52.598 63.793,46.844 63.793,39.776C63.793,32.708 58.127,26.953 51.162,26.953ZM51.266,49.449C49.402,49.449 47.58,48.888 46.03,47.837C44.48,46.785 43.272,45.291 42.559,43.543C41.845,41.795 41.658,39.871 42.022,38.015C42.386,36.159 43.283,34.454 44.601,33.116C45.919,31.778 47.599,30.866 49.427,30.497C51.255,30.128 53.15,30.317 54.872,31.042C56.594,31.766 58.066,32.992 59.102,34.565C60.137,36.139 60.69,37.989 60.69,39.881C60.687,42.417 59.694,44.849 57.927,46.643C56.16,48.437 53.765,49.446 51.266,49.449ZM51.162,26.953C44.198,26.953 38.532,32.707 38.532,39.776C38.532,46.845 44.2,52.598 51.162,52.598C58.125,52.598 63.793,46.844 63.793,39.776C63.793,32.708 58.127,26.953 51.162,26.953ZM51.266,49.449C49.402,49.449 47.58,48.888 46.03,47.837C44.48,46.785 43.272,45.291 42.559,43.543C41.845,41.795 41.658,39.871 42.022,38.015C42.386,36.159 43.283,34.454 44.601,33.116C45.919,31.778 47.599,30.866 49.427,30.497C51.255,30.128 53.15,30.317 54.872,31.042C56.594,31.766 58.066,32.992 59.102,34.565C60.137,36.139 60.69,37.989 60.69,39.881C60.687,42.417 59.694,44.849 57.927,46.643C56.16,48.437 53.765,49.446 51.266,49.449ZM75.096,18.991C74.747,18.524 74.384,18.066 74.009,17.619C72.103,15.345 69.877,13.368 67.404,11.751C63.712,9.335 59.344,8.053 54.381,8.053C48.166,8.053 42.865,10.498 38.638,13.956C38.269,14.258 37.909,14.568 37.557,14.884C37.416,15.009 37.277,15.137 37.14,15.267C30.761,21.197 27.182,29.614 27.182,38.392L27.182,89.206C27.182,89.206 29.465,91.946 37.978,91.946C46.49,91.946 48.775,88.57 48.775,88.57L48.775,80.983L59.57,80.983L59.57,88.571C59.57,88.571 62.685,91.947 70.782,91.947C78.88,91.947 81.371,89.207 81.371,89.207L81.371,38.06C81.38,31.179 79.177,24.483 75.096,18.989L75.096,18.991ZM54.381,9.11C59.066,9.11 63.26,10.297 66.842,12.639C68.822,13.935 70.638,15.471 72.252,17.214C69.092,16.288 66.835,14.912 64.837,13.701C62.255,12.13 60.025,10.775 56.989,11.234C54.092,11.673 50.629,13.766 45.88,17.964C44.8,17.388 43.792,16.789 42.841,16.223C41.755,15.577 40.72,14.963 39.705,14.453C43.149,11.739 48.111,9.107 54.381,9.107L54.381,9.11ZM51.162,54.356C43.244,54.356 36.803,47.817 36.803,39.78C36.803,31.743 43.245,25.203 51.162,25.203C59.079,25.203 65.521,31.743 65.521,39.78C65.521,47.817 59.081,54.354 51.162,54.354L51.162,54.356ZM38.398,50.973C41.309,55.625 45.989,58.645 51.266,58.645C56.504,58.645 61.153,55.673 64.069,51.081C64.703,50.604 65.309,50.089 65.883,49.539C65.832,50.028 65.789,50.523 65.753,51.025C65.554,53.667 66.005,56.078 66.632,58.227C65.603,58.554 64.68,58.984 63.709,59.435C60.931,60.727 57.473,62.335 49.431,62.437L49.153,62.437C44.96,62.437 41.787,61.221 39.461,58.724C37.026,56.11 35.744,52.295 35.148,47.844C36.11,49.01 37.2,50.058 38.398,50.971L38.398,50.973ZM28.22,38.391C28.22,29.875 31.727,21.727 37.841,16.044C38.093,15.813 38.357,15.572 38.633,15.333C39.754,15.853 40.924,16.548 42.208,17.313C42.93,17.742 43.683,18.189 44.475,18.634C36.615,21.237 30.991,28.211 30.991,36.406C30.994,39.721 31.922,42.968 33.667,45.771C33.705,46.231 33.75,46.685 33.801,47.133C34.442,52.768 35.998,56.844 38.558,59.592C41.098,62.32 44.666,63.702 49.167,63.701L49.448,63.701C57.754,63.596 61.345,61.926 64.23,60.584C65.194,60.136 66.066,59.731 67.007,59.427C67.272,60.231 67.551,60.993 67.813,61.711C68.651,64.007 69.313,65.82 68.634,66.632C68.116,67.251 66.693,67.518 64.402,67.427C61.749,67.321 57.889,66.754 52.253,65.643C46.912,64.588 44.602,65.844 41.926,67.296C39.263,68.743 35.947,70.543 28.238,70.656L28.218,70.656L28.22,38.391ZM80.334,88.719C80.025,88.949 79.449,89.314 78.537,89.678C77.145,90.233 74.671,90.895 70.783,90.895C66.87,90.895 64.231,90.063 62.705,89.366C61.647,88.88 60.961,88.391 60.609,88.104L60.609,79.928L47.736,79.928L47.736,88.174C47.469,88.442 46.905,88.925 45.923,89.406C44.541,90.083 42.042,90.889 37.979,90.889C33.917,90.889 31.392,90.235 29.999,89.686C29.075,89.321 28.515,88.956 28.222,88.73L28.222,71.917L28.26,71.917C36.271,71.799 39.735,69.918 42.517,68.408C45.185,66.958 47.113,65.912 52.019,66.88C63.452,69.135 68.049,69.284 69.586,67.446C70.736,66.071 69.964,63.951 68.981,61.268C68.733,60.587 68.469,59.865 68.217,59.105C69.734,58.798 71.547,58.769 74.178,59.213C76.515,59.608 78.554,59.922 80.333,60.166L80.334,88.719ZM74.382,57.965C71.525,57.483 69.507,57.548 67.841,57.902C67.242,55.856 66.811,53.574 66.996,51.116C67.078,50.042 67.185,49.016 67.307,48.019C70.005,44.816 71.615,40.785 71.615,36.404C71.615,25.985 62.521,17.54 51.304,17.54C50.198,17.539 49.092,17.622 47.998,17.789C51.887,14.506 54.779,12.844 57.174,12.482C57.502,12.431 57.833,12.405 58.165,12.405C60.291,12.405 62.048,13.473 64.198,14.783C66.323,16.076 68.733,17.54 72.209,18.512C72.687,18.647 73.172,18.757 73.661,18.842C74.843,20.317 75.884,21.904 76.769,23.58C79.112,28.037 80.338,33.01 80.338,38.061L80.338,58.899C78.409,58.627 76.385,58.303 74.382,57.965ZM51.162,26.953C44.198,26.953 38.532,32.707 38.532,39.776C38.532,46.845 44.2,52.598 51.162,52.598C58.125,52.598 63.793,46.844 63.793,39.776C63.793,32.708 58.127,26.953 51.162,26.953ZM51.266,49.449C49.402,49.449 47.58,48.888 46.03,47.837C44.48,46.785 43.272,45.291 42.559,43.543C41.845,41.795 41.658,39.871 42.022,38.015C42.386,36.159 43.283,34.454 44.601,33.116C45.919,31.778 47.599,30.866 49.427,30.497C51.255,30.128 53.15,30.317 54.872,31.042C56.594,31.766 58.066,32.992 59.102,34.565C60.137,36.139 60.69,37.989 60.69,39.881C60.687,42.417 59.694,44.849 57.927,46.643C56.16,48.437 53.765,49.446 51.266,49.449ZM51.162,26.953C44.198,26.953 38.532,32.707 38.532,39.776C38.532,46.845 44.2,52.598 51.162,52.598C58.125,52.598 63.793,46.844 63.793,39.776C63.793,32.708 58.127,26.953 51.162,26.953ZM51.266,49.449C49.402,49.449 47.58,48.888 46.03,47.837C44.48,46.785 43.272,45.291 42.559,43.543C41.845,41.795 41.658,39.871 42.022,38.015C42.386,36.159 43.283,34.454 44.601,33.116C45.919,31.778 47.599,30.866 49.427,30.497C51.255,30.128 53.15,30.317 54.872,31.042C56.594,31.766 58.066,32.992 59.102,34.565C60.137,36.139 60.69,37.989 60.69,39.881C60.687,42.417 59.694,44.849 57.927,46.643C56.16,48.437 53.765,49.446 51.266,49.449ZM51.162,26.953C44.198,26.953 38.532,32.707 38.532,39.776C38.532,46.845 44.2,52.598 51.162,52.598C58.125,52.598 63.793,46.844 63.793,39.776C63.793,32.708 58.127,26.953 51.162,26.953ZM51.266,49.449C49.402,49.449 47.58,48.888 46.03,47.837C44.48,46.785 43.272,45.291 42.559,43.543C41.845,41.795 41.658,39.871 42.022,38.015C42.386,36.159 43.283,34.454 44.601,33.116C45.919,31.778 47.599,30.866 49.427,30.497C51.255,30.128 53.15,30.317 54.872,31.042C56.594,31.766 58.066,32.992 59.102,34.565C60.137,36.139 60.69,37.989 60.69,39.881C60.687,42.417 59.694,44.849 57.927,46.643C56.16,48.437 53.765,49.446 51.266,49.449Z" style="fill-rule:nonzero;"/>
    </g>
    <g transform="matrix(1,0,0,1,-3.5,0)">
        <path d="M78.594,22.583C77.926,21.318 77.175,20.1 76.347,18.937C76.054,18.528 75.751,18.124 75.44,17.727C73.331,15.043 70.807,12.725 67.966,10.863C64.043,8.3 59.473,7 54.38,7C48.343,7 42.536,9.255 37.506,13.538C37.145,13.845 36.789,14.161 36.438,14.487L36.379,14.543C29.873,20.622 26.143,29.308 26.143,38.389L26.143,89.589L26.388,89.884C26.654,90.202 29.236,92.997 37.977,92.997C41.673,92.997 44.721,92.391 47.038,91.196C48.856,90.259 49.556,89.278 49.63,89.168L49.812,88.898L49.812,82.037L58.532,82.037L58.532,88.988L58.813,89.294C58.953,89.448 62.332,93 70.782,93C74.277,93 77.213,92.512 79.509,91.55C81.304,90.798 82.054,90.009 82.134,89.921L82.41,89.618L82.41,38.063C82.409,32.663 81.099,27.347 78.594,22.583ZM80.332,88.715C80.023,88.945 79.448,89.311 78.536,89.674C77.144,90.229 74.67,90.891 70.781,90.891C66.868,90.891 64.229,90.059 62.704,89.362C61.646,88.876 60.959,88.387 60.608,88.1L60.608,79.929L47.736,79.929L47.736,88.174C47.468,88.442 46.904,88.925 45.922,89.406C44.541,90.083 42.041,90.89 37.979,90.89C33.916,90.89 31.391,90.235 29.998,89.686C29.074,89.321 28.514,88.956 28.221,88.731L28.221,38.389C28.221,29.873 31.727,21.725 37.842,16.041C38.094,15.811 38.358,15.57 38.634,15.331C38.972,15.038 39.328,14.743 39.702,14.449C43.15,11.739 48.112,9.107 54.382,9.107C59.067,9.107 63.261,10.294 66.843,12.637C68.823,13.932 70.639,15.469 72.253,17.211C72.74,17.736 73.209,18.28 73.658,18.842C74.839,20.318 75.88,21.904 76.765,23.581C79.108,28.037 80.334,33.01 80.334,38.061L80.332,88.715Z" style="fill-rule:nonzero;"/>
    </g>
    <g transform="matrix(1,0,0,1,-3.5,0)">
        <path d="M51.161,26.953C44.197,26.953 38.53,32.707 38.53,39.776C38.53,46.845 44.198,52.598 51.161,52.598C58.123,52.598 63.792,46.844 63.792,39.776C63.792,32.708 58.125,26.953 51.161,26.953ZM51.265,49.449C49.401,49.449 47.579,48.888 46.029,47.837C44.479,46.786 43.271,45.291 42.557,43.543C41.844,41.795 41.657,39.871 42.021,38.015C42.384,36.159 43.282,34.454 44.6,33.116C45.918,31.778 47.597,30.867 49.425,30.497C51.253,30.128 53.148,30.318 54.871,31.042C56.593,31.766 58.065,32.992 59.1,34.566C60.136,36.139 60.689,37.989 60.689,39.881C60.686,42.418 59.692,44.85 57.925,46.643C56.159,48.437 53.763,49.446 51.265,49.449ZM51.161,26.953C44.197,26.953 38.53,32.707 38.53,39.776C38.53,46.845 44.198,52.598 51.161,52.598C58.123,52.598 63.792,46.844 63.792,39.776C63.792,32.708 58.125,26.953 51.161,26.953ZM51.265,49.449C49.401,49.449 47.579,48.888 46.029,47.837C44.479,46.786 43.271,45.291 42.557,43.543C41.844,41.795 41.657,39.871 42.021,38.015C42.384,36.159 43.282,34.454 44.6,33.116C45.918,31.778 47.597,30.867 49.425,30.497C51.253,30.128 53.148,30.318 54.871,31.042C56.593,31.766 58.065,32.992 59.1,34.566C60.136,36.139 60.689,37.989 60.689,39.881C60.686,42.418 59.692,44.85 57.925,46.643C56.159,48.437 53.763,49.446 51.265,49.449ZM55.094,21.456C53.318,20.94 51.458,20.789 49.623,21.009C41.565,21.98 35.278,30.011 35.278,39.775C35.278,43.967 36.437,47.839 38.397,50.971C41.308,55.623 45.988,58.643 51.266,58.643C56.503,58.643 61.152,55.671 64.068,51.078C65.017,49.577 65.763,47.953 66.287,46.251C66.915,44.21 67.24,42.087 67.252,39.95L67.252,39.779C67.252,30.914 62.074,23.48 55.094,21.456ZM51.164,54.354C43.246,54.354 36.806,47.815 36.806,39.778C36.806,31.741 43.247,25.201 51.164,25.201C59.081,25.201 65.523,31.741 65.523,39.778C65.523,47.815 59.079,54.354 51.161,54.354L51.164,54.354ZM51.164,26.953C44.2,26.953 38.534,32.707 38.534,39.776C38.534,46.845 44.202,52.598 51.164,52.598C58.127,52.598 63.795,46.844 63.795,39.776C63.795,32.708 58.125,26.953 51.161,26.953L51.164,26.953ZM51.269,49.449C49.405,49.449 47.582,48.888 46.032,47.837C44.482,46.786 43.274,45.291 42.561,43.543C41.847,41.795 41.661,39.871 42.024,38.015C42.388,36.159 43.285,34.454 44.603,33.116C45.921,31.778 47.601,30.867 49.429,30.497C51.257,30.128 53.152,30.318 54.874,31.042C56.596,31.766 58.068,32.992 59.104,34.566C60.14,36.139 60.692,37.989 60.692,39.881C60.69,42.418 59.695,44.851 57.928,46.645C56.16,48.438 53.764,49.447 51.265,49.449L51.269,49.449ZM51.164,26.953C44.2,26.953 38.534,32.707 38.534,39.776C38.534,46.845 44.202,52.598 51.164,52.598C58.127,52.598 63.795,46.844 63.795,39.776C63.795,32.708 58.125,26.953 51.161,26.953L51.164,26.953ZM51.269,49.449C49.405,49.449 47.582,48.888 46.032,47.837C44.482,46.786 43.274,45.291 42.561,43.543C41.847,41.795 41.661,39.871 42.024,38.015C42.388,36.159 43.285,34.454 44.603,33.116C45.921,31.778 47.601,30.867 49.429,30.497C51.257,30.128 53.152,30.318 54.874,31.042C56.596,31.766 58.068,32.992 59.104,34.566C60.14,36.139 60.692,37.989 60.692,39.881C60.69,42.418 59.695,44.851 57.928,46.645C56.16,48.438 53.764,49.447 51.265,49.449L51.269,49.449ZM51.164,26.953C44.2,26.953 38.534,32.707 38.534,39.776C38.534,46.845 44.202,52.598 51.164,52.598C58.127,52.598 63.795,46.844 63.795,39.776C63.795,32.708 58.125,26.953 51.161,26.953L51.164,26.953ZM51.269,49.449C49.405,49.449 47.582,48.888 46.032,47.837C44.482,46.786 43.274,45.291 42.561,43.543C41.847,41.795 41.661,39.871 42.024,38.015C42.388,36.159 43.285,34.454 44.603,33.116C45.921,31.778 47.601,30.867 49.429,30.497C51.257,30.128 53.152,30.318 54.874,31.042C56.596,31.766 58.068,32.992 59.104,34.566C60.14,36.139 60.692,37.989 60.692,39.881C60.69,42.418 59.695,44.851 57.928,46.645C56.16,48.438 53.764,49.447 51.265,49.449L51.269,49.449Z" style="fill-rule:nonzero;"/>
    </g>
    <g transform="matrix(1,0,0,1,-3.5,0)">
        <path d="M51.161,26.953C44.197,26.953 38.53,32.707 38.53,39.776C38.53,46.845 44.198,52.598 51.161,52.598C58.123,52.598 63.792,46.844 63.792,39.776C63.792,32.708 58.125,26.953 51.161,26.953ZM51.265,49.449C49.401,49.449 47.579,48.888 46.029,47.837C44.479,46.786 43.271,45.291 42.557,43.543C41.844,41.795 41.657,39.871 42.021,38.015C42.384,36.159 43.282,34.454 44.6,33.116C45.918,31.778 47.597,30.867 49.425,30.497C51.254,30.128 53.149,30.318 54.871,31.042C56.593,31.766 58.065,32.992 59.1,34.566C60.136,36.139 60.689,37.989 60.689,39.881C60.686,42.418 59.692,44.85 57.926,46.643C56.159,48.437 53.764,49.446 51.265,49.449ZM51.161,26.953C44.197,26.953 38.53,32.707 38.53,39.776C38.53,46.845 44.198,52.598 51.161,52.598C58.123,52.598 63.792,46.844 63.792,39.776C63.792,32.708 58.125,26.953 51.161,26.953ZM51.265,49.449C49.401,49.449 47.579,48.888 46.029,47.837C44.479,46.786 43.271,45.291 42.557,43.543C41.844,41.795 41.657,39.871 42.021,38.015C42.384,36.159 43.282,34.454 44.6,33.116C45.918,31.778 47.597,30.867 49.425,30.497C51.254,30.128 53.149,30.318 54.871,31.042C56.593,31.766 58.065,32.992 59.1,34.566C60.136,36.139 60.689,37.989 60.689,39.881C60.686,42.418 59.692,44.85 57.926,46.643C56.159,48.437 53.764,49.446 51.265,49.449ZM51.301,17.539C50.195,17.539 49.089,17.622 47.995,17.788C47.39,17.879 46.795,17.996 46.21,18.137C45.958,18.197 45.706,18.262 45.454,18.332C45.123,18.424 44.795,18.524 44.472,18.632C36.612,21.235 30.988,28.209 30.988,36.404C30.991,39.719 31.919,42.966 33.664,45.769C34.111,46.493 34.606,47.185 35.146,47.84C36.108,49.006 37.198,50.056 38.396,50.969C41.905,53.655 46.4,55.266 51.301,55.266C56.137,55.266 60.579,53.695 64.067,51.074C64.701,50.597 65.307,50.082 65.881,49.533C66.381,49.054 66.856,48.548 67.304,48.017C70.001,44.815 71.611,40.783 71.611,36.403C71.612,25.984 62.516,17.539 51.301,17.539ZM51.161,54.354C43.242,54.354 36.802,47.815 36.802,39.778C36.802,31.741 43.244,25.201 51.161,25.201C59.078,25.201 65.519,31.741 65.519,39.778C65.519,47.815 59.079,54.354 51.161,54.354ZM51.161,26.953C44.197,26.953 38.53,32.707 38.53,39.776C38.53,46.845 44.198,52.598 51.161,52.598C58.123,52.598 63.792,46.844 63.792,39.776C63.792,32.708 58.125,26.953 51.161,26.953ZM51.265,49.449C49.401,49.449 47.579,48.888 46.029,47.837C44.479,46.786 43.271,45.291 42.557,43.543C41.844,41.795 41.657,39.871 42.021,38.015C42.384,36.159 43.282,34.454 44.6,33.116C45.918,31.778 47.597,30.867 49.425,30.497C51.254,30.128 53.149,30.318 54.871,31.042C56.593,31.766 58.065,32.992 59.1,34.566C60.136,36.139 60.689,37.989 60.689,39.881C60.686,42.418 59.692,44.85 57.926,46.643C56.159,48.437 53.764,49.446 51.265,49.449ZM51.161,26.953C44.197,26.953 38.53,32.707 38.53,39.776C38.53,46.845 44.198,52.598 51.161,52.598C58.123,52.598 63.792,46.844 63.792,39.776C63.792,32.708 58.125,26.953 51.161,26.953ZM51.265,49.449C49.401,49.449 47.579,48.888 46.029,47.837C44.479,46.786 43.271,45.291 42.557,43.543C41.844,41.795 41.657,39.871 42.021,38.015C42.384,36.159 43.282,34.454 44.6,33.116C45.918,31.778 47.597,30.867 49.425,30.497C51.254,30.128 53.149,30.318 54.871,31.042C56.593,31.766 58.065,32.992 59.1,34.566C60.136,36.139 60.689,37.989 60.689,39.881C60.686,42.418 59.692,44.85 57.926,46.643C56.159,48.437 53.764,49.446 51.265,49.449ZM51.161,26.953C44.197,26.953 38.53,32.707 38.53,39.776C38.53,46.845 44.198,52.598 51.161,52.598C58.123,52.598 63.792,46.844 63.792,39.776C63.792,32.708 58.125,26.953 51.161,26.953ZM51.265,49.449C49.401,49.449 47.579,48.888 46.029,47.837C44.479,46.786 43.271,45.291 42.557,43.543C41.844,41.795 41.657,39.871 42.021,38.015C42.384,36.159 43.282,34.454 44.6,33.116C45.918,31.778 47.597,30.867 49.425,30.497C51.254,30.128 53.149,30.318 54.871,31.042C56.593,31.766 58.065,32.992 59.1,34.566C60.136,36.139 60.689,37.989 60.689,39.881C60.686,42.418 59.692,44.85 57.926,46.643C56.159,48.437 53.764,49.446 51.265,49.449Z" style="fill-rule:nonzero;"/>
    </g>
    <g transform="matrix(1,0,0,1,-3.5,0)">
        <path d="M51.162,26.953C44.198,26.953 38.531,32.707 38.531,39.776C38.531,46.845 44.199,52.598 51.162,52.598C58.124,52.598 63.793,46.844 63.793,39.776C63.793,32.708 58.126,26.953 51.162,26.953ZM51.266,49.449C49.402,49.449 47.58,48.888 46.03,47.837C44.48,46.786 43.272,45.292 42.558,43.543C41.845,41.795 41.658,39.871 42.022,38.015C42.385,36.159 43.283,34.454 44.601,33.116C45.919,31.778 47.598,30.867 49.426,30.498C51.254,30.128 53.149,30.318 54.872,31.042C56.594,31.766 58.066,32.992 59.101,34.566C60.137,36.139 60.69,37.989 60.69,39.881C60.687,42.418 59.693,44.85 57.926,46.643C56.16,48.437 53.764,49.446 51.266,49.449Z" style="fill-rule:nonzero;"/>
    </g>
    <g transform="matrix(1,0,0,1,-3.5,0)">
        <path d="M51.265,29.658C49.274,29.658 47.327,30.258 45.671,31.381C44.015,32.504 42.724,34.101 41.962,35.969C41.2,37.837 41,39.892 41.389,41.875C41.777,43.859 42.736,45.68 44.145,47.11C45.553,48.539 47.347,49.513 49.301,49.908C51.254,50.302 53.279,50.1 55.119,49.326C56.959,48.552 58.532,47.242 59.638,45.561C60.745,43.879 61.335,41.903 61.335,39.881C61.335,37.17 60.274,34.57 58.386,32.652C56.497,30.735 53.936,29.658 51.265,29.658ZM51.265,49.452C49.401,49.452 47.579,48.891 46.029,47.84C44.479,46.789 43.271,45.294 42.558,43.546C41.844,41.798 41.657,39.874 42.021,38.018C42.385,36.162 43.282,34.457 44.6,33.119C45.918,31.781 47.597,30.87 49.426,30.5C51.254,30.131 53.149,30.321 54.871,31.045C56.593,31.769 58.065,32.995 59.101,34.569C60.136,36.142 60.689,37.992 60.689,39.884C60.685,42.42 59.691,44.851 57.925,46.644C56.158,48.437 53.763,49.446 51.265,49.449L51.265,49.452Z" style="fill-rule:nonzero;"/>
    </g>
    <g transform="matrix(1,0,0,1,-3.5,0)">
        <path d="M51.265,29.003C45.356,29.003 40.55,33.883 40.55,39.881C40.55,45.879 45.356,50.759 51.265,50.759C57.174,50.759 61.981,45.879 61.981,39.881C61.981,33.883 57.173,29.003 51.265,29.003ZM51.265,49.449C49.401,49.449 47.579,48.888 46.029,47.837C44.479,46.785 43.271,45.291 42.557,43.543C41.844,41.795 41.657,39.871 42.021,38.015C42.384,36.159 43.282,34.454 44.6,33.116C45.918,31.778 47.597,30.866 49.426,30.497C51.254,30.128 53.149,30.317 54.871,31.042C56.593,31.766 58.065,32.992 59.101,34.565C60.136,36.139 60.689,37.989 60.689,39.881C60.686,42.417 59.692,44.849 57.926,46.643C56.159,48.437 53.764,49.446 51.265,49.449Z" style="fill-rule:nonzero;"/>
    </g>
    <g transform="matrix(1,0,0,1,-3.5,0)">
        <path d="M91.763,54.089C90.714,51.625 89.407,48.56 89.71,45.116C89.937,42.549 90.362,40.254 90.774,38.034C92.15,30.632 93.236,24.785 84.191,18.398C81.15,16.25 79.739,16.7 78.106,17.221C77.359,17.459 76.554,17.715 75.441,17.727C74.962,17.73 74.483,17.693 74.01,17.616C73.513,17.537 73.021,17.429 72.536,17.291L72.253,17.21C69.093,16.285 66.836,14.908 64.838,13.697C62.256,12.126 60.026,10.771 56.99,11.23C54.093,11.669 50.63,13.762 45.881,17.96C45.743,18.082 45.603,18.206 45.463,18.331C45.272,18.503 45.079,18.677 44.884,18.855L44.657,19.059C43.84,19.807 42.73,20.493 41.555,21.219C38.275,23.246 34.193,25.768 33.807,31.488C33.505,35.928 33.269,41.032 33.669,45.769C33.707,46.229 33.751,46.683 33.803,47.13C34.444,52.766 36,56.842 38.559,59.589C41.1,62.318 44.668,63.699 49.169,63.699L49.45,63.699C57.755,63.593 61.346,61.924 64.232,60.582C65.196,60.133 66.068,59.728 67.009,59.425C67.406,59.297 67.81,59.19 68.218,59.107C69.735,58.8 71.548,58.77 74.179,59.214C76.516,59.609 78.555,59.924 80.334,60.168C80.691,60.217 81.037,60.262 81.372,60.304C81.73,60.35 82.076,60.394 82.411,60.433C89.452,61.263 91.63,60.72 92.541,59.536C93.534,58.243 92.752,56.41 91.763,54.089ZM91.561,58.755C90.739,59.823 87.035,59.727 82.411,59.169C82.07,59.128 81.724,59.084 81.373,59.038C81.031,58.993 80.685,58.947 80.335,58.897C78.41,58.629 76.386,58.303 74.384,57.965C71.527,57.483 69.509,57.548 67.843,57.902C67.42,57.991 67.02,58.1 66.633,58.222C65.605,58.55 64.681,58.98 63.711,59.431C60.933,60.723 57.475,62.331 49.433,62.433L49.154,62.433C44.962,62.433 41.789,61.217 39.463,58.719C37.028,56.106 35.746,52.29 35.15,47.84C34.491,42.937 34.666,37.262 35.049,31.575C35.391,26.512 39.009,24.273 42.201,22.301C43.428,21.543 44.586,20.827 45.491,19.999C45.684,19.823 45.874,19.65 46.061,19.48C46.407,19.168 46.747,18.867 47.079,18.577C47.39,18.305 47.696,18.043 47.995,17.791C51.884,14.508 54.776,12.846 57.171,12.483C57.499,12.433 57.83,12.407 58.162,12.406C60.288,12.406 62.045,13.475 64.195,14.785C66.321,16.077 68.73,17.542 72.206,18.513C72.684,18.648 73.169,18.758 73.659,18.843C74.133,18.926 74.613,18.976 75.095,18.992C75.512,19.006 75.93,18.989 76.344,18.94C77.19,18.84 77.866,18.624 78.476,18.43C79.959,17.959 80.938,17.646 83.478,19.44C87.358,22.179 89.484,24.927 90.172,28.088C90.809,31.017 90.225,34.162 89.548,37.804C89.15,39.952 88.698,42.378 88.467,45.007C88.136,48.766 89.512,51.999 90.618,54.597C91.412,56.451 92.097,58.057 91.559,58.755L91.561,58.755Z" style="fill-rule:nonzero;"/>
    </g>
    <g transform="matrix(1,0,0,1,-3.5,0)">
        <path d="M68.981,61.268C68.732,60.587 68.469,59.865 68.217,59.105C68.087,58.714 67.961,58.313 67.839,57.903C67.241,55.856 66.809,53.574 66.994,51.116C67.076,50.042 67.183,49.016 67.306,48.019C67.515,46.324 67.77,44.72 68.02,43.149C68.692,38.924 69.273,35.276 68.613,31.737C67.889,27.848 65.697,24.507 61.713,21.226C58.755,18.787 57.308,19.326 55.776,19.896C54.567,20.346 53.193,20.856 50.486,19.973C49.319,19.587 48.18,19.122 47.076,18.578C46.781,18.435 46.492,18.289 46.207,18.14C46.096,18.082 45.981,18.023 45.873,17.964C44.794,17.388 43.786,16.789 42.835,16.223C41.749,15.577 40.714,14.963 39.698,14.453C39.342,14.275 38.988,14.11 38.634,13.96C38.257,13.8 37.879,13.66 37.501,13.542C36.355,13.182 35.202,13.032 33.992,13.201C30.721,13.657 27.497,16.382 23.537,22.036C22.804,23.081 22.167,24.36 21.496,25.714C19.796,29.127 17.869,32.996 13.52,35.321C10.551,36.908 8.562,39.34 7.611,42.549C6.771,45.377 6.798,48.746 7.686,52.292C8.916,57.191 11.704,62.112 15.334,65.795C18.659,69.165 22.424,71.242 26.141,71.779C26.488,71.83 26.834,71.867 27.179,71.889C27.476,71.91 27.772,71.92 28.067,71.92L28.256,71.92C36.267,71.802 39.731,69.921 42.514,68.41C45.181,66.961 47.109,65.914 52.015,66.882C63.448,69.137 68.045,69.286 69.582,67.449C70.734,66.069 69.96,63.951 68.981,61.268ZM68.633,66.629C68.116,67.247 66.693,67.514 64.401,67.423C61.749,67.318 57.889,66.751 52.252,65.639C46.912,64.585 44.602,65.84 41.926,67.292C39.262,68.739 35.947,70.539 28.238,70.653L28.066,70.653C27.772,70.653 27.476,70.641 27.179,70.62C26.834,70.593 26.488,70.553 26.141,70.497C22.751,69.96 19.295,68.019 16.218,64.896C12.741,61.367 10.073,56.659 8.896,51.974C8.065,48.65 8.029,45.515 8.803,42.907C9.656,40.035 11.438,37.857 14.101,36.433C18.801,33.921 20.912,29.682 22.608,26.279C23.261,24.968 23.878,23.73 24.555,22.763C29.408,15.834 32.363,14.699 34.164,14.447C34.44,14.409 34.718,14.389 34.996,14.39C35.461,14.392 35.924,14.443 36.379,14.543C36.778,14.629 37.172,14.743 37.556,14.884C37.911,15.012 38.269,15.162 38.632,15.331C39.753,15.851 40.923,16.546 42.207,17.31C42.929,17.74 43.682,18.187 44.474,18.631L44.878,18.855C45.262,19.066 45.656,19.274 46.06,19.478C47.213,20.068 48.403,20.581 49.623,21.012C49.782,21.069 49.943,21.124 50.105,21.176C52.418,21.93 53.926,21.785 55.093,21.459C55.498,21.345 55.862,21.21 56.205,21.083C57.598,20.564 58.52,20.221 60.928,22.207C64.67,25.291 66.723,28.395 67.39,31.974C67.852,34.458 67.653,37.068 67.25,39.944L67.25,39.949C67.114,40.917 66.955,41.916 66.79,42.95C66.625,43.984 66.449,45.098 66.285,46.249C66.134,47.303 65.997,48.397 65.883,49.535C65.832,50.023 65.789,50.518 65.753,51.02C65.554,53.662 66.005,56.074 66.632,58.222C66.751,58.632 66.877,59.033 67.009,59.423C67.275,60.227 67.553,60.989 67.815,61.708C68.651,64.003 69.313,65.816 68.633,66.629Z" style="fill-rule:nonzero;"/>
    </g>
</svg>
