<svg width="33" height="15" fill="none" xmlns="http://www.w3.org/2000/svg"><path d="M4.538 8.59v.803h8.615v5.033H2.43V4.574H.75V1.279h5.864l-.28-1.18L8.59 0l.28 1.279h5.65v3.295h-1.795V8.59H4.538Zm7.791-4.508V3.18H2.957v.902h9.372Zm-1.746 1.77H4.538v.935h6.045v-.935Zm-6.045 5.312v1.508h6.506v-1.508H4.538ZM24.229 3.885l-.033.77c0 .274-.011.564-.033.87h6.49c-.012.098-.028.311-.05.639-.011.317-.033.694-.066 1.131-.022.426-.05.88-.082 1.36-.033.482-.066.94-.1 1.378-.021.426-.043.798-.065 1.115-.022.316-.038.524-.05.623-.043.524-.131.95-.263 1.278a1.68 1.68 0 0 1-.544.754c-.241.197-.549.34-.922.426a9.448 9.448 0 0 1-1.35.197l-1.549.115-.675-2.05 1.466-.098c.34-.021.62-.054.84-.098.23-.044.406-.11.527-.197a.791.791 0 0 0 .28-.393c.055-.164.088-.383.099-.656 0-.054.005-.17.016-.344.022-.186.039-.399.05-.64.021-.24.044-.491.066-.754.021-.273.038-.53.049-.77.022-.24.038-.448.05-.623.01-.186.021-.306.032-.36h-4.43c-.11.764-.275 1.47-.495 2.114a8.71 8.71 0 0 1-.889 1.853 10.63 10.63 0 0 1-1.35 1.737A17.609 17.609 0 0 1 19.352 15l-1.532-1.721a17.422 17.422 0 0 0 1.927-1.656 7.161 7.161 0 0 0 1.236-1.705 7.596 7.596 0 0 0 .708-1.984c.165-.72.28-1.568.346-2.54.022-.23.038-.476.05-.738l.032-.77h-3.64v-2.05h5.847L23.916.115 26.172 0l.395 1.836h5.683v2.05h-8.021Z" fill="#fff"/></svg>