<svg id="图层_1" data-name="图层 1" xmlns="http://www.w3.org/2000/svg" viewBox="0 0 200 200"><path d="M169.5,51.5c-15-29-41.71-17.57-46-15-5,3-16,13-15,25,.75,9,4.5,13.5,4.5,13.5L25,133s-1,1,0,3,19,30,20,31,3,3,5,2,3.5-3.5,1.5-6.5-8-13-8-14,0-2,2-3,4-1,5,1a169.65,169.65,0,0,0,10,14c1,1,4,2,6,0,1-1,0-5-1-7s-8-11-9-14a4.69,4.69,0,0,1,1-4,3.3,3.3,0,0,1,5,0c2,2,10,12,11,13a3,3,0,0,0,4,0c1-1,2-3,0-6s-8-13-8-13a3.55,3.55,0,0,1,2-3c2-1,53-33,53-33s2.23,3.63,4,5c9,7,25.7,8.85,36,1S184.5,80.5,169.5,51.5ZM153.5,86c-6.77,3.91-16.72-.64-22.22-10.17s-4.47-20.42,2.3-24.33,16.72.65,22.22,10.18S160.27,82.05,153.5,86Z"/></svg>