<svg width="20" height="20" viewBox="0 0 20 20" fill="none" xmlns="http://www.w3.org/2000/svg">
<path d="M10 19.5313C8.21997 19.5313 6.47991 19.0034 4.99987 18.0145C3.51983 17.0255 2.36628 15.6199 1.68509 13.9754C1.0039 12.3309 0.82567 10.5213 1.17294 8.77544C1.5202 7.02961 2.37737 5.42597 3.63604 4.16729C4.89472 2.90862 6.49836 2.05145 8.24419 1.70419C9.99002 1.35692 11.7996 1.53515 13.4442 2.21634C15.0887 2.89753 16.4943 4.05108 17.4832 5.53112C18.4722 7.01116 19 8.75122 19 10.5313C19 12.9182 18.0518 15.2074 16.364 16.8952C14.6761 18.583 12.387 19.5313 10 19.5313ZM10 3.53125C8.14349 3.53125 6.36301 4.26875 5.05026 5.58151C3.7375 6.89426 3 8.67474 3 10.5313C3 12.3878 3.7375 14.1682 5.05026 15.481C6.36301 16.7938 8.14349 17.5313 10 17.5313C11.8565 17.5313 13.637 16.7938 14.9498 15.481C16.2625 14.1682 17 12.3878 17 10.5313C17 8.67474 16.2625 6.89426 14.9498 5.58151C13.637 4.26875 11.8565 3.53125 10 3.53125Z" fill="#878787"/>
<path d="M7.27562 9.37938C7.7644 9.37938 8.16062 8.98315 8.16062 8.49438C8.16062 8.0056 7.7644 7.60938 7.27562 7.60938C6.78685 7.60938 6.39062 8.0056 6.39062 8.49438C6.39062 8.98315 6.78685 9.37938 7.27562 9.37938Z" fill="#878787"/>
<path d="M12.7248 9.37938C13.2136 9.37938 13.6098 8.98315 13.6098 8.49438C13.6098 8.0056 13.2136 7.60938 12.7248 7.60938C12.2361 7.60938 11.8398 8.0056 11.8398 8.49438C11.8398 8.98315 12.2361 9.37938 12.7248 9.37938Z" fill="#878787"/>
<path d="M10.0005 15.3958C9.6528 15.396 9.30601 15.3608 8.96547 15.2908C8.30421 15.1523 7.67707 14.8837 7.12047 14.5008C6.8473 14.3159 6.59277 14.1049 6.36047 13.8708C6.1275 13.6374 5.9166 13.383 5.73047 13.1108L6.56047 12.5508C6.85685 12.9939 7.23739 13.3744 7.68047 13.6708C7.90321 13.8204 8.1392 13.9493 8.38547 14.0558C8.63694 14.1612 8.89821 14.2416 9.16547 14.2958C9.7167 14.4058 10.2842 14.4058 10.8355 14.2958C11.1027 14.2416 11.364 14.1612 11.6155 14.0558C11.8617 13.9493 12.0977 13.8204 12.3205 13.6708C12.7635 13.3744 13.1441 12.9939 13.4405 12.5508L14.2705 13.1108C14.0841 13.3828 13.8732 13.6372 13.6405 13.8708C13.4071 14.1038 13.1527 14.3147 12.8805 14.5008C12.3227 14.8784 11.6956 15.1418 11.0355 15.2758C10.6954 15.3509 10.3487 15.3911 10.0005 15.3958Z" fill="#878787"/>
</svg>