<svg width="100" height="100" viewBox="0 0 100 100" fill="none" xmlns="http://www.w3.org/2000/svg">
<path d="M51.1621 26.953C44.1981 26.953 38.5318 32.707 38.5318 39.7759C38.5318 46.8448 44.1997 52.598 51.1621 52.598C58.1245 52.598 63.7932 46.844 63.7932 39.7759C63.7932 32.7077 58.1268 26.953 51.1621 26.953ZM51.2664 49.4486C49.4023 49.4488 47.5801 48.8878 46.0302 47.8366C44.4802 46.7854 43.2721 45.2911 42.5587 43.5429C41.8452 41.7946 41.6585 39.8709 42.0221 38.0149C42.3856 36.1589 43.2832 34.454 44.6012 33.1159C45.9192 31.7778 47.5985 30.8664 49.4267 30.4972C51.2549 30.128 53.1499 30.3174 54.8721 31.0415C56.5942 31.7657 58.0662 32.992 59.1018 34.5654C60.1374 36.1388 60.6902 37.9886 60.6902 39.881C60.6874 42.4175 59.6936 44.8493 57.927 46.6429C56.1603 48.4366 53.7649 49.4456 51.2664 49.4486ZM51.1621 26.953C44.1981 26.953 38.5318 32.707 38.5318 39.7759C38.5318 46.8448 44.1997 52.598 51.1621 52.598C58.1245 52.598 63.7932 46.844 63.7932 39.7759C63.7932 32.7077 58.1268 26.953 51.1621 26.953ZM51.2664 49.4486C49.4023 49.4488 47.5801 48.8878 46.0302 47.8366C44.4802 46.7854 43.2721 45.2911 42.5587 43.5429C41.8452 41.7946 41.6585 39.8709 42.0221 38.0149C42.3856 36.1589 43.2832 34.454 44.6012 33.1159C45.9192 31.7778 47.5985 30.8664 49.4267 30.4972C51.2549 30.128 53.1499 30.3174 54.8721 31.0415C56.5942 31.7657 58.0662 32.992 59.1018 34.5654C60.1374 36.1388 60.6902 37.9886 60.6902 39.881C60.6874 42.4175 59.6936 44.8493 57.927 46.6429C56.1603 48.4366 53.7649 49.4456 51.2664 49.4486ZM75.0957 18.9911C74.7465 18.5236 74.3843 18.0661 74.009 17.6186C72.1025 15.3446 69.8771 13.3677 67.404 11.7511C63.7116 9.3352 59.3435 8.05322 54.3807 8.05322C48.1664 8.05322 42.8651 10.4983 38.6376 13.956C38.2688 14.2583 37.9086 14.5675 37.5569 14.8835C37.4163 15.0094 37.2773 15.1372 37.1397 15.2671C30.7607 21.1968 27.1816 29.6136 27.1816 38.3919V89.2061C27.1816 89.2061 29.4654 91.9457 37.9778 91.9457C46.4902 91.9457 48.7748 88.5701 48.7748 88.5701V80.9826H59.5702V88.5709C59.5702 88.5709 62.6845 91.9465 70.7821 91.9465C78.8796 91.9465 81.3712 89.2069 81.3712 89.2069V38.0597C81.3803 31.1787 79.1769 24.4826 75.0957 18.9888V18.9911ZM54.3807 9.10965C59.0661 9.10965 63.2604 10.2965 66.8417 12.6387C68.8217 13.9346 70.6385 15.4709 72.2519 17.2135C69.0915 16.2883 66.8349 14.9119 64.8368 13.7005C62.2553 12.1301 60.0252 10.7745 56.9887 11.234C54.092 11.6728 50.6293 13.7657 45.8796 17.9638C44.7997 17.3877 43.7923 16.7892 42.8409 16.2231C41.7549 15.5771 40.7203 14.9626 39.7046 14.4531C43.1492 11.7388 48.1113 9.10734 54.3807 9.10734V9.10965ZM51.1621 54.3564C43.2437 54.3564 36.8034 47.8168 36.8034 39.7797C36.8034 31.7426 43.2452 25.2031 51.1621 25.2031C59.079 25.2031 65.5207 31.7426 65.5207 39.7797C65.5207 47.8168 59.0805 54.3541 51.1621 54.3541V54.3564ZM38.398 50.973C41.309 55.6253 45.9892 58.645 51.2664 58.645C56.5035 58.645 61.1527 55.6729 64.069 51.0805C64.7032 50.6037 65.3089 50.0891 65.8827 49.5392C65.8324 50.0276 65.789 50.5227 65.7528 51.0245C65.554 53.6667 66.0051 56.078 66.6316 58.2269C65.6031 58.5545 64.6796 58.9841 63.7093 59.4352C60.9313 60.7271 57.4731 62.3352 49.4307 62.4372H49.1526C44.9599 62.4372 41.7874 61.2212 39.4613 58.724C37.0264 56.1102 35.7439 52.2949 35.1477 47.8444C36.1096 49.0095 37.2002 50.0584 38.398 50.9707V50.973ZM28.22 38.3911C28.22 29.8753 31.7265 21.7269 37.841 16.0435C38.0927 15.8134 38.3572 15.5717 38.633 15.3331C39.7538 15.8533 40.9236 16.5483 42.2076 17.3125C42.9301 17.7421 43.6827 18.1894 44.4747 18.6336C36.6153 21.2374 30.9912 28.2112 30.9912 36.4056C30.9945 39.7212 31.9222 42.9681 33.6672 45.7707C33.705 46.231 33.7496 46.685 33.801 47.1325C34.4418 52.7683 35.9978 56.8444 38.5575 59.5917C41.0982 62.3198 44.6659 63.7015 49.167 63.7008C49.2599 63.7008 49.3544 63.7008 49.4481 63.7008C57.7535 63.5957 61.3446 61.9263 64.23 60.5844C65.1943 60.1356 66.0664 59.7306 67.0072 59.4268C67.2725 60.2308 67.5506 60.9926 67.8128 61.7114C68.6509 64.0069 69.3129 65.8198 68.6335 66.6322C68.1159 67.2506 66.6929 67.5176 64.4015 67.427C61.749 67.3212 57.8887 66.7542 52.2526 65.6425C46.9119 64.5884 44.6017 65.8435 41.9265 67.2958C39.2626 68.7428 35.9472 70.5426 28.2381 70.6562H28.2177L28.22 38.3911ZM80.3336 88.7189C80.0245 88.9491 79.4494 89.3143 78.5372 89.6779C77.1452 90.2326 74.671 90.8947 70.7828 90.8947C66.8697 90.8947 64.2307 90.0631 62.7049 89.3657C61.6469 88.8801 60.9607 88.3906 60.6093 88.1036V79.9284H47.7364V88.1735C47.4689 88.442 46.9051 88.9253 45.9227 89.4063C44.5412 90.083 42.0421 90.8893 37.9793 90.8893C33.9166 90.8893 31.3917 90.2349 29.999 89.6856C29.0747 89.3212 28.5147 88.956 28.2215 88.7304V71.9174H28.26C36.2707 71.7993 39.7349 69.9181 42.5174 68.4075C45.1851 66.9583 47.1129 65.9118 52.0191 66.88C63.4523 69.1348 68.0494 69.2836 69.5858 67.4462C70.736 66.0706 69.9636 63.9509 68.9812 61.268C68.7325 60.5867 68.4688 59.8648 68.2171 59.1053C69.7339 58.7984 71.5468 58.7685 74.1775 59.2127C76.5149 59.6078 78.5539 59.9224 80.3328 60.1663L80.3336 88.7189ZM74.3823 57.9652C71.5249 57.4827 69.5071 57.5479 67.8408 57.9023C67.2423 55.8555 66.8108 53.5738 66.9959 51.1157C67.0775 50.0417 67.1848 49.0159 67.3073 48.0186C70.0052 44.8163 71.6149 40.7847 71.6149 36.4041C71.6149 25.9848 62.5213 17.5396 51.3042 17.5396C50.1975 17.539 49.0923 17.6224 47.9979 17.7889C51.8868 14.5061 54.779 12.8443 57.1738 12.4815C57.5018 12.4311 57.8329 12.4054 58.1646 12.4047C60.2912 12.4047 62.0482 13.4734 64.1982 14.783C66.3233 16.0758 68.7325 17.5403 72.2088 18.5116C72.6871 18.6467 73.1719 18.7568 73.6613 18.8415C74.843 20.3174 75.8836 21.9042 76.7688 23.5804C79.1121 28.0365 80.338 33.0099 80.3381 38.0612V58.8989C78.4088 58.6266 76.3849 58.3028 74.3823 57.9652ZM51.1621 26.953C44.1981 26.953 38.5318 32.707 38.5318 39.7759C38.5318 46.8448 44.1997 52.598 51.1621 52.598C58.1245 52.598 63.7932 46.844 63.7932 39.7759C63.7932 32.7077 58.1268 26.953 51.1621 26.953ZM51.2664 49.4486C49.4023 49.4488 47.5801 48.8878 46.0302 47.8366C44.4802 46.7854 43.2721 45.2911 42.5587 43.5429C41.8452 41.7946 41.6585 39.8709 42.0221 38.0149C42.3856 36.1589 43.2832 34.454 44.6012 33.1159C45.9192 31.7778 47.5985 30.8664 49.4267 30.4972C51.2549 30.128 53.1499 30.3174 54.8721 31.0415C56.5942 31.7657 58.0662 32.992 59.1018 34.5654C60.1374 36.1388 60.6902 37.9886 60.6902 39.881C60.6874 42.4175 59.6936 44.8493 57.927 46.6429C56.1603 48.4366 53.7649 49.4456 51.2664 49.4486ZM51.1621 26.953C44.1981 26.953 38.5318 32.707 38.5318 39.7759C38.5318 46.8448 44.1997 52.598 51.1621 52.598C58.1245 52.598 63.7932 46.844 63.7932 39.7759C63.7932 32.7077 58.1268 26.953 51.1621 26.953ZM51.2664 49.4486C49.4023 49.4488 47.5801 48.8878 46.0302 47.8366C44.4802 46.7854 43.2721 45.2911 42.5587 43.5429C41.8452 41.7946 41.6585 39.8709 42.0221 38.0149C42.3856 36.1589 43.2832 34.454 44.6012 33.1159C45.9192 31.7778 47.5985 30.8664 49.4267 30.4972C51.2549 30.128 53.1499 30.3174 54.8721 31.0415C56.5942 31.7657 58.0662 32.992 59.1018 34.5654C60.1374 36.1388 60.6902 37.9886 60.6902 39.881C60.6874 42.4175 59.6936 44.8493 57.927 46.6429C56.1603 48.4366 53.7649 49.4456 51.2664 49.4486ZM51.1621 26.953C44.1981 26.953 38.5318 32.707 38.5318 39.7759C38.5318 46.8448 44.1997 52.598 51.1621 52.598C58.1245 52.598 63.7932 46.844 63.7932 39.7759C63.7932 32.7077 58.1268 26.953 51.1621 26.953ZM51.2664 49.4486C49.4023 49.4488 47.5801 48.8878 46.0302 47.8366C44.4802 46.7854 43.2721 45.2911 42.5587 43.5429C41.8452 41.7946 41.6585 39.8709 42.0221 38.0149C42.3856 36.1589 43.2832 34.454 44.6012 33.1159C45.9192 31.7778 47.5985 30.8664 49.4267 30.4972C51.2549 30.128 53.1499 30.3174 54.8721 31.0415C56.5942 31.7657 58.0662 32.992 59.1018 34.5654C60.1374 36.1388 60.6902 37.9886 60.6902 39.881C60.6874 42.4175 59.6936 44.8493 57.927 46.6429C56.1603 48.4366 53.7649 49.4456 51.2664 49.4486Z" fill="black"/>
<path d="M78.594 22.5832C77.9261 21.318 77.1753 20.0997 76.3465 18.9367C76.0537 18.5276 75.7515 18.1243 75.4396 17.7269C73.331 15.0429 70.8067 12.7247 67.9655 10.8628C64.0434 8.29962 59.4728 7 54.38 7C48.3426 7 42.5364 9.25478 37.5056 13.538C37.1453 13.8449 36.7894 14.1612 36.4377 14.487L36.3788 14.543C29.8728 20.6215 26.1426 29.3084 26.1426 38.3889V89.5891L26.3882 89.8837C26.6542 90.2021 29.2357 92.9969 37.9771 92.9969C41.6726 92.9969 44.7212 92.3908 47.0382 91.1963C48.8564 90.2588 49.5555 89.2784 49.6295 89.1679L49.8124 88.8978V82.0368H58.5319V88.9876L58.813 89.2944C58.9528 89.4479 62.3324 93 70.7821 93C74.2765 93 77.2133 92.5121 79.5091 91.55C81.304 90.7982 82.0544 90.0087 82.1337 89.9213L82.4096 89.6182V38.0629C82.4095 32.6631 81.099 27.3466 78.594 22.5832ZM80.3321 88.7152C80.023 88.9454 79.4479 89.3106 78.5358 89.6742C77.1437 90.2289 74.6695 90.891 70.7813 90.891C66.8682 90.891 64.2293 90.0594 62.7035 89.362C61.6455 88.8763 60.9593 88.3869 60.6079 88.0999V79.9286H47.7357V88.1736C47.4682 88.4421 46.9044 88.9254 45.922 89.4065C44.5405 90.0831 42.0414 90.8895 37.9786 90.8895C33.9159 90.8895 31.391 90.235 29.9982 89.6857C29.074 89.3213 28.514 88.9561 28.2208 88.7306V38.3889C28.2208 29.8731 31.7273 21.7247 37.8418 16.0414C38.0935 15.8112 38.358 15.5695 38.6338 15.3309C38.9716 15.0379 39.3283 14.7425 39.7024 14.4494C43.15 11.7389 48.1121 9.10748 54.3815 9.10748C59.067 9.10748 63.2612 10.2943 66.8425 12.6366C68.8225 13.9324 70.6393 15.4687 72.2527 17.2113C72.7404 17.7361 73.2087 18.2795 73.6576 18.8416C74.8393 20.3175 75.8798 21.9043 76.7651 23.5806C79.1084 28.0366 80.3343 33.0101 80.3344 38.0613L80.3321 88.7152Z" fill="white"/>
<path d="M51.1605 26.9533C44.1966 26.9533 38.5302 32.7073 38.5302 39.7762C38.5302 46.8451 44.1981 52.5983 51.1605 52.5983C58.1229 52.5983 63.7916 46.8443 63.7916 39.7762C63.7916 32.708 58.1252 26.9533 51.1605 26.9533ZM51.2648 49.4489C49.4008 49.4491 47.5785 48.8881 46.0286 47.8369C44.4786 46.7856 43.2705 45.2914 42.5571 43.5432C41.8437 41.7949 41.6569 39.8712 42.0205 38.0152C42.384 36.1592 43.2816 34.4543 44.5996 33.1162C45.9176 31.778 47.5969 30.8667 49.4251 30.4975C51.2533 30.1283 53.1483 30.3177 54.8705 31.0418C56.5926 31.766 58.0646 32.9923 59.1002 34.5657C60.1358 36.1391 60.6886 37.9889 60.6886 39.8813C60.6858 42.4178 59.6921 44.8496 57.9254 46.6432C56.1587 48.4369 53.7633 49.4459 51.2648 49.4489ZM51.1605 26.9533C44.1966 26.9533 38.5302 32.7073 38.5302 39.7762C38.5302 46.8451 44.1981 52.5983 51.1605 52.5983C58.1229 52.5983 63.7916 46.8443 63.7916 39.7762C63.7916 32.708 58.1252 26.9533 51.1605 26.9533ZM51.2648 49.4489C49.4008 49.4491 47.5785 48.8881 46.0286 47.8369C44.4786 46.7856 43.2705 45.2914 42.5571 43.5432C41.8437 41.7949 41.6569 39.8712 42.0205 38.0152C42.384 36.1592 43.2816 34.4543 44.5996 33.1162C45.9176 31.778 47.5969 30.8667 49.4251 30.4975C51.2533 30.1283 53.1483 30.3177 54.8705 31.0418C56.5926 31.766 58.0646 32.9923 59.1002 34.5657C60.1358 36.1391 60.6886 37.9889 60.6886 39.8813C60.6858 42.4178 59.6921 44.8496 57.9254 46.6432C56.1587 48.4369 53.7633 49.4459 51.2648 49.4489ZM55.094 21.4556C53.3176 20.9403 51.4581 20.7886 49.6234 21.0091C41.5651 21.9796 35.2783 30.0113 35.2783 39.7754C35.2783 43.9666 36.4368 47.8394 38.3972 50.971C41.3082 55.6233 45.9884 58.643 51.2655 58.643C56.5027 58.643 61.1519 55.6709 64.0682 51.0784C65.0172 49.5772 65.7635 47.9534 66.287 46.2505C66.9145 44.2103 67.2397 42.0868 67.252 39.9496V39.9449C67.252 39.8897 67.252 39.8345 67.252 39.7792C67.252 30.9143 62.0738 23.4802 55.094 21.4556ZM51.1643 54.3544C43.2459 54.3544 36.8056 47.8148 36.8056 39.7777C36.8056 31.7406 43.2474 25.201 51.1643 25.201C59.0812 25.201 65.5229 31.7406 65.5229 39.7777C65.5229 47.8148 59.0789 54.3544 51.1605 54.3544H51.1643ZM51.1643 26.9533C44.2003 26.9533 38.534 32.7073 38.534 39.7762C38.534 46.8451 44.2018 52.5983 51.1643 52.5983C58.1267 52.5983 63.7954 46.8443 63.7954 39.7762C63.7954 32.708 58.1252 26.9533 51.1605 26.9533H51.1643ZM51.2686 49.4489C49.4045 49.4491 47.5823 48.8881 46.0324 47.8369C44.4824 46.7856 43.2743 45.2914 42.5609 43.5432C41.8474 41.7949 41.6607 39.8712 42.0243 38.0152C42.3878 36.1592 43.2854 34.4543 44.6034 33.1162C45.9214 31.778 47.6007 30.8667 49.4289 30.4975C51.2571 30.1283 53.1521 30.3177 54.8743 31.0418C56.5964 31.766 58.0684 32.9923 59.104 34.5657C60.1396 36.1391 60.6924 37.9889 60.6924 39.8813C60.6896 42.4184 59.6953 44.8508 57.9278 46.6446C56.1603 48.4383 53.764 49.4469 51.2648 49.4489H51.2686ZM51.1643 26.9533C44.2003 26.9533 38.534 32.7073 38.534 39.7762C38.534 46.8451 44.2018 52.5983 51.1643 52.5983C58.1267 52.5983 63.7954 46.8443 63.7954 39.7762C63.7954 32.708 58.1252 26.9533 51.1605 26.9533H51.1643ZM51.2686 49.4489C49.4045 49.4491 47.5823 48.8881 46.0324 47.8369C44.4824 46.7856 43.2743 45.2914 42.5609 43.5432C41.8474 41.7949 41.6607 39.8712 42.0243 38.0152C42.3878 36.1592 43.2854 34.4543 44.6034 33.1162C45.9214 31.778 47.6007 30.8667 49.4289 30.4975C51.2571 30.1283 53.1521 30.3177 54.8743 31.0418C56.5964 31.766 58.0684 32.9923 59.104 34.5657C60.1396 36.1391 60.6924 37.9889 60.6924 39.8813C60.6896 42.4184 59.6953 44.8508 57.9278 46.6446C56.1603 48.4383 53.764 49.4469 51.2648 49.4489H51.2686ZM51.1643 26.9533C44.2003 26.9533 38.534 32.7073 38.534 39.7762C38.534 46.8451 44.2018 52.5983 51.1643 52.5983C58.1267 52.5983 63.7954 46.8443 63.7954 39.7762C63.7954 32.708 58.1252 26.9533 51.1605 26.9533H51.1643ZM51.2686 49.4489C49.4045 49.4491 47.5823 48.8881 46.0324 47.8369C44.4824 46.7856 43.2743 45.2914 42.5609 43.5432C41.8474 41.7949 41.6607 39.8712 42.0243 38.0152C42.3878 36.1592 43.2854 34.4543 44.6034 33.1162C45.9214 31.778 47.6007 30.8667 49.4289 30.4975C51.2571 30.1283 53.1521 30.3177 54.8743 31.0418C56.5964 31.766 58.0684 32.9923 59.104 34.5657C60.1396 36.1391 60.6924 37.9889 60.6924 39.8813C60.6896 42.4184 59.6953 44.8508 57.9278 46.6446C56.1603 48.4383 53.764 49.4469 51.2648 49.4489H51.2686Z" fill="white"/>
<path d="M51.1607 26.9533C44.1967 26.9533 38.5303 32.7072 38.5303 39.7761C38.5303 46.8451 44.1982 52.5982 51.1607 52.5982C58.1231 52.5982 63.7917 46.8443 63.7917 39.7761C63.7917 32.708 58.1254 26.9533 51.1607 26.9533ZM51.265 49.4489C49.4009 49.4491 47.5787 48.8881 46.0287 47.8368C44.4788 46.7856 43.2707 45.2914 42.5573 43.5432C41.8438 41.7949 41.6571 39.8712 42.0206 38.0152C42.3842 36.1592 43.2817 34.4543 44.5998 33.1162C45.9178 31.778 47.5971 30.8667 49.4253 30.4975C51.2535 30.1283 53.1485 30.3177 54.8707 31.0418C56.5928 31.7659 58.0648 32.9923 59.1004 34.5657C60.136 36.1391 60.6888 37.9889 60.6888 39.8813C60.686 42.4177 59.6922 44.8496 57.9255 46.6432C56.1589 48.4368 53.7635 49.4459 51.265 49.4489ZM51.1607 26.9533C44.1967 26.9533 38.5303 32.7072 38.5303 39.7761C38.5303 46.8451 44.1982 52.5982 51.1607 52.5982C58.1231 52.5982 63.7917 46.8443 63.7917 39.7761C63.7917 32.708 58.1254 26.9533 51.1607 26.9533ZM51.265 49.4489C49.4009 49.4491 47.5787 48.8881 46.0287 47.8368C44.4788 46.7856 43.2707 45.2914 42.5573 43.5432C41.8438 41.7949 41.6571 39.8712 42.0206 38.0152C42.3842 36.1592 43.2817 34.4543 44.5998 33.1162C45.9178 31.778 47.5971 30.8667 49.4253 30.4975C51.2535 30.1283 53.1485 30.3177 54.8707 31.0418C56.5928 31.7659 58.0648 32.9923 59.1004 34.5657C60.136 36.1391 60.6888 37.9889 60.6888 39.8813C60.686 42.4177 59.6922 44.8496 57.9255 46.6432C56.1589 48.4368 53.7635 49.4459 51.265 49.4489ZM51.3012 17.5391C50.1946 17.5385 49.0894 17.6219 47.995 17.7884C47.3904 17.8794 46.7954 17.9955 46.21 18.1367C45.958 18.1971 45.7061 18.262 45.4542 18.3316C45.1227 18.4236 44.7952 18.5236 44.4718 18.6315C36.6123 21.2354 30.9883 28.2092 30.9883 36.4036C30.9915 39.7191 31.9193 42.966 33.6643 45.7687C34.1112 46.4926 34.6063 47.1847 35.1462 47.8401C36.1078 49.0062 37.1981 50.0562 38.3958 50.9695C41.9046 53.6547 46.3996 55.2658 51.3005 55.2658C56.1371 55.2658 60.5792 53.6953 64.0668 51.0738C64.701 50.5971 65.3067 50.0824 65.8806 49.5325C66.3813 49.0537 66.8563 48.5479 67.3036 48.0173C70.0015 44.8151 71.6112 40.7835 71.6112 36.4028C71.6119 25.9843 62.5161 17.5391 51.3012 17.5391ZM51.1607 54.3543C43.2422 54.3543 36.802 47.8148 36.802 39.7777C36.802 31.7406 43.2438 25.201 51.1607 25.201C59.0776 25.201 65.5193 31.7406 65.5193 39.7777C65.5193 47.8148 59.0791 54.3543 51.1607 54.3543ZM51.1607 26.9533C44.1967 26.9533 38.5303 32.7072 38.5303 39.7761C38.5303 46.8451 44.1982 52.5982 51.1607 52.5982C58.1231 52.5982 63.7917 46.8443 63.7917 39.7761C63.7917 32.708 58.1254 26.9533 51.1607 26.9533ZM51.265 49.4489C49.4009 49.4491 47.5787 48.8881 46.0287 47.8368C44.4788 46.7856 43.2707 45.2914 42.5573 43.5432C41.8438 41.7949 41.6571 39.8712 42.0206 38.0152C42.3842 36.1592 43.2817 34.4543 44.5998 33.1162C45.9178 31.778 47.5971 30.8667 49.4253 30.4975C51.2535 30.1283 53.1485 30.3177 54.8707 31.0418C56.5928 31.7659 58.0648 32.9923 59.1004 34.5657C60.136 36.1391 60.6888 37.9889 60.6888 39.8813C60.686 42.4177 59.6922 44.8496 57.9255 46.6432C56.1589 48.4368 53.7635 49.4459 51.265 49.4489ZM51.1607 26.9533C44.1967 26.9533 38.5303 32.7072 38.5303 39.7761C38.5303 46.8451 44.1982 52.5982 51.1607 52.5982C58.1231 52.5982 63.7917 46.8443 63.7917 39.7761C63.7917 32.708 58.1254 26.9533 51.1607 26.9533ZM51.265 49.4489C49.4009 49.4491 47.5787 48.8881 46.0287 47.8368C44.4788 46.7856 43.2707 45.2914 42.5573 43.5432C41.8438 41.7949 41.6571 39.8712 42.0206 38.0152C42.3842 36.1592 43.2817 34.4543 44.5998 33.1162C45.9178 31.778 47.5971 30.8667 49.4253 30.4975C51.2535 30.1283 53.1485 30.3177 54.8707 31.0418C56.5928 31.7659 58.0648 32.9923 59.1004 34.5657C60.136 36.1391 60.6888 37.9889 60.6888 39.8813C60.686 42.4177 59.6922 44.8496 57.9255 46.6432C56.1589 48.4368 53.7635 49.4459 51.265 49.4489ZM51.1607 26.9533C44.1967 26.9533 38.5303 32.7072 38.5303 39.7761C38.5303 46.8451 44.1982 52.5982 51.1607 52.5982C58.1231 52.5982 63.7917 46.8443 63.7917 39.7761C63.7917 32.708 58.1254 26.9533 51.1607 26.9533ZM51.265 49.4489C49.4009 49.4491 47.5787 48.8881 46.0287 47.8368C44.4788 46.7856 43.2707 45.2914 42.5573 43.5432C41.8438 41.7949 41.6571 39.8712 42.0206 38.0152C42.3842 36.1592 43.2817 34.4543 44.5998 33.1162C45.9178 31.778 47.5971 30.8667 49.4253 30.4975C51.2535 30.1283 53.1485 30.3177 54.8707 31.0418C56.5928 31.7659 58.0648 32.9923 59.1004 34.5657C60.136 36.1391 60.6888 37.9889 60.6888 39.8813C60.686 42.4177 59.6922 44.8496 57.9255 46.6432C56.1589 48.4368 53.7635 49.4459 51.265 49.4489Z" fill="white"/>
<path d="M51.1616 26.9534C44.1976 26.9534 38.5312 32.7073 38.5312 39.7762C38.5312 46.8451 44.1991 52.5983 51.1616 52.5983C58.124 52.5983 63.7926 46.8444 63.7926 39.7762C63.7926 32.7081 58.1263 26.9534 51.1616 26.9534ZM51.2659 49.449C49.4018 49.4491 47.5796 48.8881 46.0297 47.8369C44.4797 46.7857 43.2716 45.2915 42.5582 43.5432C41.8447 41.795 41.658 39.8712 42.0215 38.0152C42.3851 36.1592 43.2826 34.4544 44.6007 33.1162C45.9187 31.7781 47.598 30.8668 49.4262 30.4976C51.2544 30.1283 53.1494 30.3178 54.8716 31.0419C56.5937 31.766 58.0657 32.9923 59.1013 34.5657C60.1369 36.1392 60.6897 37.989 60.6897 39.8813C60.6869 42.4178 59.6931 44.8496 57.9264 46.6433C56.1598 48.4369 53.7644 49.4459 51.2659 49.449Z" fill="white"/>
<path d="M51.2653 29.6582C49.2736 29.6582 47.3267 30.2578 45.6707 31.3811C44.0147 32.5044 42.724 34.101 41.9618 35.9689C41.1997 37.8369 41.0003 39.8924 41.3888 41.8754C41.7774 43.8585 42.7364 45.68 44.1447 47.1097C45.553 48.5394 47.3473 49.513 49.3007 49.9075C51.2541 50.3019 53.2788 50.0995 55.1189 49.3257C56.9589 48.552 58.5316 47.2417 59.6381 45.5606C60.7446 43.8794 61.3352 41.9029 61.3352 39.8811C61.3352 37.1698 60.2743 34.5696 58.3858 32.6524C56.4973 30.7353 53.936 29.6582 51.2653 29.6582ZM51.2653 49.4518C49.4012 49.4519 47.579 48.8909 46.0291 47.8397C44.4791 46.7885 43.271 45.2943 42.5576 43.546C41.8441 41.7978 41.6574 39.874 42.0209 38.018C42.3845 36.162 43.282 34.4572 44.6001 33.119C45.9181 31.7809 47.5974 30.8696 49.4256 30.5004C51.2538 30.1311 53.1488 30.3205 54.871 31.0447C56.5931 31.7688 58.0651 32.9951 59.1007 34.5685C60.1363 36.1419 60.6891 37.9918 60.6891 39.8841C60.6855 42.4201 59.6914 44.8511 57.9248 46.6441C56.1582 48.4371 53.7633 49.4457 51.2653 49.4487V49.4518Z" fill="black"/>
<path d="M51.2651 29.0029C45.3562 29.0029 40.5498 33.883 40.5498 39.881C40.5498 45.8789 45.3562 50.759 51.2651 50.759C57.1741 50.759 61.9805 45.8789 61.9805 39.881C61.9805 33.883 57.1733 29.0029 51.2651 29.0029ZM51.2651 49.4486C49.4011 49.4488 47.5789 48.8878 46.0289 47.8365C44.479 46.7853 43.2709 45.2911 42.5574 43.5429C41.844 41.7946 41.6573 39.8709 42.0208 38.0149C42.3844 36.1589 43.2819 34.454 44.5999 33.1159C45.918 31.7777 47.5973 30.8664 49.4255 30.4972C51.2537 30.128 53.1487 30.3174 54.8708 31.0415C56.593 31.7656 58.065 32.992 59.1006 34.5654C60.1362 36.1388 60.6889 37.9886 60.6889 39.881C60.6861 42.4175 59.6924 44.8493 57.9257 46.6429C56.159 48.4365 53.7637 49.4456 51.2651 49.4486Z" fill="white"/>
<path d="M91.7633 54.0887C90.7137 51.6252 89.407 48.5595 89.7101 45.1163C89.9368 42.5493 90.3622 40.2539 90.7741 38.0344C92.1495 30.6317 93.2355 24.785 84.1911 18.3981C81.15 16.25 79.7391 16.7003 78.106 17.2205C77.3594 17.459 76.5538 17.7153 75.4413 17.7268C74.9621 17.73 74.4833 17.6931 74.01 17.6163C73.513 17.5372 73.0209 17.4286 72.5364 17.291L72.253 17.2097C69.0925 16.2845 66.836 14.9081 64.8379 13.6967C62.2563 12.1263 60.0262 10.7707 56.9897 11.2302C54.0931 11.669 50.6304 13.7619 45.8807 17.96C45.7426 18.0823 45.6033 18.206 45.4627 18.3314C45.2723 18.5027 45.0794 18.6771 44.8839 18.8546L44.6572 19.0586C43.8402 19.8074 42.7301 20.4933 41.5549 21.2191C38.2751 23.246 34.1927 25.7677 33.8073 31.4879C33.505 35.9284 33.2685 41.0318 33.669 45.7685C33.7068 46.2288 33.7514 46.6827 33.8028 47.1302C34.4436 52.766 35.9996 56.8421 38.5593 59.5894C41.1 62.3176 44.6677 63.6993 49.1688 63.6985C49.2617 63.6985 49.3562 63.6985 49.4499 63.6985C57.7553 63.5934 61.3464 61.924 64.2318 60.5822C65.1961 60.1334 66.0682 59.7283 67.009 59.4245C67.4061 59.2965 67.8098 59.1904 68.2182 59.1069C69.7349 58.8 71.5479 58.7701 74.1785 59.2143C76.516 59.6094 78.5549 59.9239 80.3339 60.1679C80.6906 60.2165 81.0367 60.262 81.3722 60.3045C81.7299 60.3505 82.076 60.3935 82.4106 60.4334C89.4516 61.2627 91.6303 60.7203 92.541 59.5357C93.534 58.243 92.7518 56.4102 91.7633 54.0887ZM91.5608 58.7547C90.7386 59.8227 87.0348 59.7268 82.4113 59.169C82.0697 59.1276 81.7236 59.0839 81.373 59.0378C81.0309 58.9933 80.6848 58.9465 80.3346 58.8974C78.4098 58.6289 76.386 58.3029 74.3841 57.9653C71.5267 57.4827 69.5089 57.5479 67.8426 57.9024C67.4201 57.9914 67.0204 58.0995 66.6334 58.2223C65.6049 58.5499 64.6814 58.9795 63.7111 59.4306C60.9331 60.7226 57.4749 62.3306 49.4325 62.4327H49.1544C44.9617 62.4327 41.7892 61.2166 39.4631 58.7194C37.0282 56.1056 35.7457 52.2904 35.1495 47.8399C34.4912 42.9368 34.6658 37.2618 35.049 31.5754C35.3905 26.5119 39.0089 24.2733 42.2011 22.3008C43.4276 21.5428 44.5861 20.827 45.4907 19.9992C45.6837 19.8228 45.8739 19.6496 46.0613 19.4798C46.4074 19.1684 46.7465 18.8674 47.0785 18.5768C47.3903 18.3053 47.6959 18.0431 47.9952 17.7905C51.8841 14.5077 54.7762 12.8459 57.1711 12.483C57.499 12.4327 57.8302 12.407 58.1618 12.4063C60.2884 12.4063 62.0455 13.475 64.1955 14.7846C66.3206 16.0773 68.7298 17.5419 72.2061 18.5132C72.6844 18.6483 73.1692 18.7584 73.6586 18.8431C74.1333 18.926 74.6131 18.9757 75.0945 18.9919C75.5118 19.0061 75.9296 18.9887 76.3444 18.9397C77.1901 18.84 77.8664 18.6244 78.4763 18.4303C79.959 17.9585 80.9377 17.6462 83.4776 19.4399C87.3575 22.1788 89.4841 24.9269 90.1718 28.0877C90.8089 31.0169 90.2247 34.1616 89.5483 37.8035C89.1501 39.9516 88.6981 42.3782 88.4669 45.0066C88.1359 48.7659 89.5121 51.9988 90.6184 54.5965C91.4119 56.4508 92.0966 58.0574 91.5593 58.7547H91.5608Z" fill="white"/>
<path d="M68.981 61.2682C68.7324 60.5869 68.4686 59.865 68.217 59.1054C68.087 58.7142 67.961 58.3132 67.8391 57.9025C67.2406 55.8556 66.8091 53.574 66.9942 51.1159C67.0758 50.0418 67.1831 49.0161 67.3056 48.0187C67.5149 46.324 67.7703 44.7198 68.0197 43.1494C68.6923 38.9244 69.2727 35.2764 68.613 31.7366C67.889 27.8477 65.6966 24.5066 61.7133 21.2261C58.7554 18.7872 57.3082 19.3257 55.7763 19.8958C54.5672 20.3461 53.1933 20.8563 50.4863 19.9725C49.3194 19.5874 48.1799 19.1216 47.0758 18.5785C46.781 18.4348 46.4916 18.2888 46.2074 18.1404C46.0956 18.0821 45.9807 18.023 45.8734 17.964C44.7935 17.3878 43.7861 16.7894 42.8347 16.2232C41.7487 15.5772 40.7141 14.9627 39.6984 14.4533C39.3417 14.2745 38.988 14.1096 38.6344 13.96C38.2565 13.8004 37.8787 13.66 37.5008 13.5419C36.3551 13.1821 35.2019 13.0317 33.992 13.2005C30.7213 13.657 27.4973 16.382 23.5366 22.0362C22.8043 23.0811 22.1673 24.3601 21.4962 25.7142C19.7958 29.1274 17.8687 32.9963 13.5203 35.3209C10.5511 36.9083 8.56208 39.3395 7.61063 42.5487C6.77102 45.3765 6.79823 48.746 7.6862 52.292C8.91575 57.1905 11.7036 62.1121 15.3341 65.7946C18.6592 69.1649 22.4242 71.2417 26.1408 71.7787C26.4875 71.8299 26.8336 71.8667 27.1792 71.8892C27.4759 71.9096 27.7719 71.9199 28.0672 71.9199H28.2561C36.2667 71.8017 39.7309 69.9206 42.5135 68.41C45.1812 66.9607 47.109 65.9143 52.0151 66.8825C63.4484 69.1373 68.0454 69.2861 69.5818 67.4487C70.7335 66.0685 69.9604 63.951 68.981 61.2682ZM68.6334 66.6285C68.1157 67.2469 66.6927 67.5139 64.4013 67.4234C61.7488 67.3175 57.8886 66.7505 52.2524 65.6389C46.9118 64.5847 44.6015 65.8399 41.9263 67.2922C39.2624 68.7391 35.947 70.5389 28.238 70.6525H28.2176H28.0664C27.7717 70.6525 27.4759 70.6415 27.1792 70.6195C26.8336 70.5934 26.4875 70.5525 26.1408 70.4967C22.7514 69.9597 19.2948 68.0187 16.2175 64.8962C12.7412 61.3671 10.0728 56.6589 8.8961 51.9744C8.06481 48.6502 8.02929 45.5146 8.80315 42.9069C9.6556 40.0353 11.4376 37.8573 14.1007 36.4334C18.8013 33.9208 20.912 29.6821 22.6079 26.2788C23.2608 24.9684 23.8775 23.7302 24.5553 22.7628C29.4078 15.8342 32.3634 14.6988 34.1643 14.4472C34.4398 14.4086 34.7175 14.3894 34.9956 14.3896C35.4606 14.3919 35.9241 14.4433 36.3786 14.5431C36.7782 14.6294 37.1715 14.7432 37.556 14.8837C37.9111 15.0118 38.2686 15.1622 38.6321 15.331C39.7528 15.8511 40.9227 16.5462 42.2067 17.3103C42.9291 17.74 43.6818 18.1872 44.4738 18.6314L44.8781 18.8547C45.262 19.0659 45.656 19.2736 46.0601 19.4776C47.2129 20.0684 48.403 20.581 49.6225 21.012C49.7817 21.0688 49.9427 21.1235 50.1054 21.1762C52.4179 21.9304 53.9256 21.7854 55.0932 21.4585C55.4982 21.345 55.8625 21.21 56.2048 21.0826C57.5984 20.564 58.5196 20.2211 60.9281 22.2073C64.6696 25.2914 66.7229 28.3955 67.3895 31.9737C67.852 34.4578 67.6532 37.0678 67.2504 39.944V39.9486C67.1144 40.9168 66.9549 41.9157 66.7902 42.9499C66.6254 43.9841 66.4486 45.098 66.2854 46.2488C66.1342 47.303 65.9967 48.397 65.8826 49.5347C65.8322 50.0232 65.7888 50.5183 65.7526 51.02C65.5538 53.6622 66.005 56.0735 66.6315 58.2224C66.7509 58.6321 66.8771 59.0326 67.0093 59.4231C67.2746 60.2271 67.5527 60.9889 67.8149 61.7078C68.6507 64.0032 69.3128 65.8161 68.6334 66.6285Z" fill="white"/>
</svg>
