<svg width="56" height="48" fill="none" xmlns="http://www.w3.org/2000/svg"><mask id="a" style="mask-type:alpha" maskUnits="userSpaceOnUse" x="0" y="0" width="8" height="8"><path fill="#C4C4C4" d="M0 0h8v8H0z"/></mask><g mask="url(#a)" fill="#fff"><path fill-rule="evenodd" clip-rule="evenodd" d="M0 7.5h44V8H0v-.5ZM0 0h44v.5H0V0Z"/><circle cx="3.5" cy="2" r=".5"/><circle cx="5.5" cy="4" r=".5"/><circle cx="1" cy="3" r=".5"/><circle cx="2.5" cy="5" r=".5"/><circle cx="7" cy="2" r=".5"/><circle cx="1" cy="6" r=".5"/><circle cx="7" cy="5" r=".5"/><circle cx="3.5" cy="6" r=".5"/><circle cx="5.5" cy="6" r=".5"/></g><mask id="b" style="mask-type:alpha" maskUnits="userSpaceOnUse" x="8" y="0" width="8" height="8"><path fill="#C4C4C4" d="M8 0h8v8H8z"/></mask><g mask="url(#b)" fill="#fff"><path fill-rule="evenodd" clip-rule="evenodd" d="M8 7.5h44V8H8v-.5ZM8 0h44v.5H8V0Z"/><circle cx="11.5" cy="2" r=".5"/><circle cx="13.5" cy="4" r=".5"/><circle cx="9" cy="3" r=".5"/><circle cx="10.5" cy="5" r=".5"/><circle cx="15" cy="2" r=".5"/><circle cx="9" cy="6" r=".5"/><circle cx="15" cy="5" r=".5"/><circle cx="11.5" cy="6" r=".5"/><circle cx="13.5" cy="6" r=".5"/></g><mask id="c" style="mask-type:alpha" maskUnits="userSpaceOnUse" x="16" y="0" width="8" height="8"><path fill="#C4C4C4" d="M16 0h8v8h-8z"/></mask><g mask="url(#c)" fill="#fff"><path fill-rule="evenodd" clip-rule="evenodd" d="M16 7.5h44V8H16v-.5ZM16 0h44v.5H16V0Z"/><circle cx="19.5" cy="2" r=".5"/><circle cx="21.5" cy="4" r=".5"/><circle cx="17" cy="3" r=".5"/><circle cx="18.5" cy="5" r=".5"/><circle cx="23" cy="2" r=".5"/><circle cx="17" cy="6" r=".5"/><circle cx="23" cy="5" r=".5"/><circle cx="19.5" cy="6" r=".5"/><circle cx="21.5" cy="6" r=".5"/></g><mask id="d" style="mask-type:alpha" maskUnits="userSpaceOnUse" x="24" y="0" width="8" height="8"><path fill="#C4C4C4" d="M24 0h8v8h-8z"/></mask><g mask="url(#d)" fill="#fff"><path fill-rule="evenodd" clip-rule="evenodd" d="M24 7.5h44V8H24v-.5ZM24 0h44v.5H24V0Z"/><circle cx="27.5" cy="2" r=".5"/><circle cx="29.5" cy="4" r=".5"/><circle cx="25" cy="3" r=".5"/><circle cx="26.5" cy="5" r=".5"/><circle cx="31" cy="2" r=".5"/><circle cx="25" cy="6" r=".5"/><circle cx="31" cy="5" r=".5"/><circle cx="27.5" cy="6" r=".5"/><circle cx="29.5" cy="6" r=".5"/></g><mask id="e" style="mask-type:alpha" maskUnits="userSpaceOnUse" x="32" y="0" width="8" height="8"><path fill="#C4C4C4" d="M32 0h8v8h-8z"/></mask><g mask="url(#e)" fill="#fff"><path fill-rule="evenodd" clip-rule="evenodd" d="M32 7.5h44V8H32v-.5ZM32 0h44v.5H32V0Z"/><circle cx="35.5" cy="2" r=".5"/><circle cx="37.5" cy="4" r=".5"/><circle cx="33" cy="3" r=".5"/><circle cx="34.5" cy="5" r=".5"/><circle cx="39" cy="2" r=".5"/><circle cx="33" cy="6" r=".5"/><circle cx="39" cy="5" r=".5"/><circle cx="35.5" cy="6" r=".5"/><circle cx="37.5" cy="6" r=".5"/></g><mask id="f" style="mask-type:alpha" maskUnits="userSpaceOnUse" x="40" y="0" width="8" height="8"><path fill="#C4C4C4" d="M40 0h8v8h-8z"/></mask><g mask="url(#f)" fill="#fff"><path fill-rule="evenodd" clip-rule="evenodd" d="M40 7.5h44V8H40v-.5ZM40 0h44v.5H40V0Z"/><circle cx="43.5" cy="2" r=".5"/><circle cx="45.5" cy="4" r=".5"/><circle cx="41" cy="3" r=".5"/><circle cx="42.5" cy="5" r=".5"/><circle cx="47" cy="2" r=".5"/><circle cx="41" cy="6" r=".5"/><circle cx="47" cy="5" r=".5"/><circle cx="43.5" cy="6" r=".5"/><circle cx="45.5" cy="6" r=".5"/></g><path fill-rule="evenodd" clip-rule="evenodd" d="M55 48V0h1v48h-1ZM48 48V0h1v48h-1Z" fill="#fff"/></svg>