<svg width="180" height="180" viewBox="0 0 180 180" fill="none" xmlns="http://www.w3.org/2000/svg">
<path d="M107.166 141.678C100.429 141.678 97.7344 138.887 97.6224 138.768L97.4029 138.529V133.07H90.4466V138.459L90.3006 138.671C90.2424 138.756 89.6849 139.528 88.235 140.264C86.3878 141.203 83.9545 141.678 81.0108 141.678C78.088 141.678 75.6767 141.295 73.8471 140.54C72.429 139.955 71.8715 139.349 71.7716 139.233L71.5762 139.002V98.7918C71.57 95.2645 72.2958 91.7742 73.7077 88.5417C75.1103 85.305 77.1809 82.4011 79.7838 80.0203C81.6543 78.2838 83.7975 76.8666 86.1277 75.8254C88.6347 74.7148 91.3463 74.1409 94.0883 74.1406C98.1493 74.1406 101.792 75.1614 104.919 77.1743C108.478 79.4745 111.394 82.6413 113.393 86.3773C115.39 90.1175 116.434 94.292 116.435 98.5317V139.02L116.215 139.258C116.153 139.326 115.557 139.947 114.123 140.538C112.292 141.295 109.951 141.678 107.166 141.678ZM99.0547 137.836C99.5683 138.234 100.129 138.566 100.725 138.824C101.941 139.373 104.045 140.025 107.166 140.025C110.265 140.025 112.238 139.506 113.347 139.069C113.853 138.88 114.332 138.627 114.774 138.316V98.5339C114.774 94.5668 113.797 90.6608 111.929 87.161C110.062 83.6724 107.34 80.715 104.018 78.566C101.164 76.7287 97.82 75.7957 94.0828 75.7957C91.57 75.7969 89.0851 76.3229 86.7873 77.34C84.6235 78.3095 82.6335 79.6277 80.8967 81.2418C76.0213 85.7045 73.2258 92.1022 73.2258 98.7918V138.327C73.6615 138.641 74.1383 138.894 74.6428 139.078C75.7535 139.508 77.7588 140.023 81.0086 140.023C84.2585 140.023 86.2407 139.39 87.3416 138.858C87.8737 138.617 88.3627 138.29 88.7893 137.89V131.415H99.0547V137.836Z" fill="white"/>
<path d="M91.6056 85.0664C84.5658 85.0664 78.8596 91.7001 78.8596 99.8834C78.8596 103.176 79.7827 106.216 81.3456 108.676C83.6669 112.33 87.3975 114.699 91.6056 114.699C95.7763 114.699 99.4871 112.366 101.813 108.759C103.408 106.286 104.353 103.213 104.353 99.8834C104.352 91.7001 98.6453 85.0664 91.6056 85.0664ZM99.6177 107.978C97.7448 109.85 95.2805 111.016 92.6447 111.275C90.009 111.535 87.3648 110.872 85.1627 109.401C82.9606 107.929 81.3367 105.74 80.5678 103.206C79.7988 100.671 79.9324 97.9485 80.9456 95.5015C81.9589 93.0545 83.7892 91.0345 86.1248 89.7857C88.4604 88.5368 91.1567 88.1364 93.7544 88.6525C96.3521 89.1686 98.6905 90.5695 100.371 92.6163C102.052 94.6632 102.971 97.2295 102.972 99.878C102.977 101.383 102.682 102.874 102.107 104.264C101.531 105.655 100.685 106.917 99.6177 107.978Z" fill="white"/>
<path d="M98.643 92.7623C96.9955 91.1147 94.8277 90.0894 92.509 89.861C90.1903 89.6326 87.8641 90.2154 85.9269 91.51C83.9897 92.8045 82.5613 94.7308 81.8852 96.9605C81.2091 99.1902 81.3271 101.585 82.2191 103.738C83.1111 105.89 84.7218 107.667 86.7769 108.765C88.832 109.863 91.2042 110.214 93.4892 109.759C95.7743 109.304 97.8308 108.07 99.3083 106.269C100.786 104.467 101.593 102.209 101.592 99.8789C101.595 98.5566 101.336 97.2469 100.83 96.0254C100.324 94.8038 99.5805 93.6948 98.643 92.7623ZM91.6054 107.478C90.1193 107.478 88.6665 107.038 87.4308 106.212C86.1951 105.386 85.2321 104.213 84.6634 102.84C84.0947 101.467 83.946 99.9558 84.236 98.4982C84.526 97.0406 85.2417 95.7018 86.2927 94.651C87.3436 93.6002 88.6826 92.8846 90.1402 92.5948C91.5978 92.305 93.1087 92.454 94.4816 93.0229C95.8546 93.5918 97.028 94.555 97.8535 95.7908C98.679 97.0266 99.1195 98.4794 99.1193 99.9656C99.117 101.958 98.3246 103.867 96.9159 105.276C95.5073 106.684 93.5974 107.476 91.6054 107.478Z" fill="white"/>
<path d="M91.6339 82.418C82.691 82.418 75.4417 89.0505 75.4417 97.2351C75.4417 101.845 77.7399 105.959 81.3454 108.676C84.1431 110.784 87.7266 112.051 91.6339 112.051C95.4897 112.051 99.0315 110.817 101.812 108.758C105.481 106.042 107.827 101.889 107.827 97.234C107.827 89.0505 100.578 82.418 91.6339 82.418ZM99.6176 107.978C97.7446 109.851 95.2803 111.016 92.6446 111.275C90.0088 111.535 87.3647 110.872 85.1625 109.401C82.9604 107.929 81.3365 105.74 80.5676 103.206C79.7986 100.671 79.9322 97.9486 80.9455 95.5016C81.9587 93.0546 83.7891 91.0345 86.1246 89.7857C88.4602 88.5368 91.1565 88.1364 93.7542 88.6525C96.3519 89.1686 98.6903 90.5695 100.371 92.6164C102.052 94.6632 102.971 97.2295 102.972 99.878C102.976 101.383 102.682 102.874 102.107 104.264C101.531 105.655 100.685 106.917 99.6176 107.978Z" fill="white"/>
<path d="M91.6057 91.9355C90.0177 91.9353 88.4654 92.406 87.1449 93.2881C85.8245 94.1702 84.7952 95.424 84.1874 96.891C83.5796 98.358 83.4204 99.9724 83.7301 101.53C84.0397 103.087 84.8043 104.518 85.9271 105.641C87.0499 106.764 88.4804 107.529 90.0379 107.839C91.5953 108.148 93.2097 107.989 94.6768 107.382C96.1439 106.774 97.3979 105.745 98.2801 104.425C99.1624 103.104 99.6333 101.552 99.6333 99.9642C99.6333 97.8351 98.7875 95.7931 97.2821 94.2875C95.7767 92.7818 93.7348 91.9358 91.6057 91.9355ZM91.6057 107.477C90.1195 107.477 88.6668 107.036 87.4311 106.211C86.1954 105.385 85.2323 104.211 84.6636 102.838C84.095 101.465 83.9462 99.9544 84.2362 98.4968C84.5263 97.0392 85.242 95.7004 86.293 94.6496C87.3439 93.5988 88.6829 92.8832 90.1405 92.5934C91.5981 92.3036 93.1089 92.4526 94.4819 93.0215C95.8549 93.5904 97.0283 94.5536 97.8538 95.7894C98.6793 97.0252 99.1198 98.478 99.1196 99.9642C99.1173 101.956 98.3249 103.866 96.9162 105.274C95.5075 106.683 93.5977 107.475 91.6057 107.477Z" fill="black"/>
<path d="M91.6055 91.4258C89.9157 91.4256 88.2639 91.9264 86.8588 92.8651C85.4537 93.8037 84.3585 95.1379 83.7117 96.699C83.0649 98.2601 82.8955 99.978 83.2251 101.635C83.5546 103.293 84.3682 104.815 85.5629 106.01C86.7577 107.205 88.28 108.019 89.9373 108.348C91.5946 108.678 93.3124 108.509 94.8736 107.862C96.4347 107.216 97.7691 106.121 98.7079 104.716C99.6467 103.311 100.148 101.659 100.148 99.9692C100.145 97.7044 99.2444 95.533 97.643 93.9314C96.0416 92.3298 93.8704 91.4287 91.6055 91.4258ZM91.6055 107.482C90.1194 107.482 88.6666 107.041 87.4309 106.216C86.1952 105.39 85.2322 104.216 84.6635 102.843C84.0948 101.47 83.9461 99.9594 84.2361 98.5018C84.5261 97.0442 85.2419 95.7054 86.2928 94.6546C87.3437 93.6038 88.6827 92.8882 90.1403 92.5984C91.5979 92.3086 93.1088 92.4576 94.4817 93.0265C95.8547 93.5954 97.0281 94.5586 97.8536 95.7944C98.6791 97.0302 99.1196 98.4831 99.1194 99.9692C99.1156 101.96 98.3226 103.869 96.9141 105.276C95.5056 106.683 93.5966 107.475 91.6055 107.477V107.482Z" fill="white"/>
<path d="M89.9318 118.668C88.1242 118.668 86.4943 118.394 85.085 117.851C83.715 117.328 82.4806 116.503 81.474 115.437C79.4336 113.279 78.1923 110.078 77.6819 105.652C77.2188 101.642 77.424 97.192 77.6819 93.367C77.9893 88.8758 81.2435 86.8914 83.859 85.3032C84.7952 84.7325 85.681 84.1947 86.3318 83.6064C90.6288 79.7276 93.6614 77.8321 96.1638 77.4601C98.585 77.099 100.363 78.1636 102.42 79.3972C104.061 80.3851 105.919 81.4936 108.559 82.2202C110.829 82.8458 111.982 82.4836 112.998 82.1653C114.301 81.7559 115.426 81.4036 117.851 83.0894C125.06 88.1053 124.196 92.6975 123.099 98.5113C122.77 100.254 122.431 102.056 122.25 104.073C122.008 106.777 123.051 109.184 123.887 111.119C124.676 112.942 125.3 114.383 124.508 115.399C123.913 116.16 122.616 116.474 120.301 116.416C118.05 116.361 114.736 115.957 109.868 115.147C105.771 114.465 104.161 115.202 101.937 116.222C99.6321 117.275 96.7784 118.587 90.1524 118.669L89.9318 118.668ZM97.1044 78.3875C96.8399 78.3876 96.5757 78.4074 96.3142 78.4468C94.0159 78.7903 91.1435 80.6101 87.0013 84.3494C86.2802 85.0003 85.355 85.5568 84.3782 86.1582C81.8329 87.7069 78.9485 89.463 78.6763 93.4416C78.0935 101.965 78.1166 110.447 82.1951 114.761C83.1007 115.718 84.2109 116.458 85.4428 116.926C86.7917 117.445 88.3733 117.694 90.1437 117.676C96.5556 117.596 99.3127 116.333 101.528 115.318C103.742 114.303 105.638 113.436 110.036 114.168C114.855 114.97 118.127 115.369 120.33 115.424C122.22 115.47 123.364 115.257 123.732 114.788C124.16 114.239 123.615 112.978 122.983 111.517C122.105 109.48 121.007 106.944 121.267 103.988C121.452 101.925 121.816 100.015 122.129 98.3313C122.669 95.471 123.134 93.0015 122.626 90.701C122.077 88.2194 120.383 86.0605 117.29 83.9093C115.265 82.5012 114.484 82.7459 113.302 83.1169C112.212 83.4593 110.855 83.8852 108.301 83.1816C105.532 82.4199 103.611 81.2686 101.916 80.2534C100.201 79.2249 98.799 78.3853 97.1044 78.3853V78.3875Z" fill="white"/>
<path d="M73.1116 125.122C69.6685 125.122 66.0707 123.417 62.9624 120.311C60.0682 117.418 57.8456 113.552 56.8644 109.705C56.1543 106.92 56.1334 104.274 56.8018 102.053C57.1486 100.876 57.7224 99.7791 58.491 98.823C59.3211 97.8099 60.3497 96.9773 61.5136 96.3765C64.9808 94.5513 66.5174 91.5132 67.8729 88.8319C68.4107 87.7684 68.9178 86.7641 69.5017 85.9431C72.6594 81.5035 75.2299 79.3577 77.8432 79.0043C80.2688 78.6751 82.4101 79.9252 84.8906 81.3784C86.6357 82.4002 88.6124 83.5581 90.9919 84.3231C93.1497 85.0168 94.2429 84.6162 95.2088 84.2627C96.4304 83.8149 97.5839 83.3924 99.9425 85.3076C103.118 87.8869 104.865 90.5101 105.442 93.5646C105.968 96.3436 105.506 99.2094 104.969 102.527C104.653 104.488 104.326 106.515 104.153 108.783C103.918 111.857 104.921 114.571 105.734 116.756C106.516 118.863 107.133 120.527 106.215 121.608C105.569 122.37 104.282 122.671 102.044 122.582C99.8789 122.497 96.753 122.046 92.2091 121.163C88.2963 120.403 86.7608 121.225 84.636 122.362C82.4167 123.55 79.6563 125.026 73.2685 125.119L73.1116 125.122ZM78.6334 79.9438C78.4131 79.9437 78.1931 79.9588 77.9749 79.9888C76.5393 80.1864 74.1828 81.0776 70.3139 86.5193C69.7728 87.2788 69.2811 88.2513 68.7608 89.2808C67.4086 91.9545 65.7261 95.2823 61.979 97.2557C59.8552 98.373 58.435 100.084 57.7556 102.34C57.1377 104.388 57.164 106.849 57.8291 109.461C58.7676 113.14 60.8946 116.838 63.666 119.609C66.6294 122.572 70.0318 124.173 73.2499 124.127C79.3962 124.038 82.0391 122.624 84.1629 121.493C86.2867 120.363 88.1372 119.367 92.3946 120.195C96.888 121.073 99.9678 121.512 102.081 121.596C103.906 121.669 105.044 121.458 105.453 120.972C105.994 120.334 105.467 118.911 104.795 117.107C103.951 114.832 102.902 112 103.149 108.714C103.325 106.403 103.671 104.263 103.976 102.374C104.497 99.149 104.947 96.3634 104.454 93.7545C103.922 90.9436 102.286 88.507 99.3027 86.0836C97.3819 84.524 96.6477 84.794 95.5369 85.2056C94.4767 85.593 93.1574 86.077 90.6747 85.2791C88.1921 84.4812 86.1649 83.2936 84.3758 82.2454C82.2246 80.9745 80.4707 79.9471 78.6334 79.9471V79.9438Z" fill="white"/>
<path d="M139.9 160.098H45.4389C45.1491 160.097 44.8662 160.009 44.6278 159.844L33.5172 152.161C33.3276 152.03 33.1726 151.854 33.0655 151.65C32.9585 151.446 32.9026 151.218 32.9026 150.988V44.2741C32.9026 44.2533 32.9026 44.2335 32.9026 44.2126C32.9134 43.9261 33.0103 43.6496 33.1807 43.4189C33.351 43.1883 33.5868 43.0143 33.8575 42.9197L99.5629 18.2004C99.7788 18.1194 100.011 18.0918 100.24 18.1202C100.469 18.1486 100.687 18.232 100.877 18.3633C101.067 18.4946 101.221 18.6699 101.328 18.8741C101.435 19.0784 101.491 19.3056 101.491 19.5362V29.5075C101.491 29.8317 101.381 30.1461 101.178 30.399C100.975 30.652 100.693 30.8284 100.376 30.8992L46.6857 42.8769C46.3167 42.959 45.9301 42.8913 45.6109 42.6886C45.2917 42.4859 45.066 42.1648 44.9834 41.7958V41.7815L36.9767 44.7922L44.8605 52.1579H139.9C140.279 52.1579 140.642 52.3082 140.909 52.5758C141.177 52.8434 141.327 53.2063 141.327 53.5847V158.673C141.327 159.051 141.176 159.413 140.909 159.68C140.641 159.947 140.278 160.098 139.9 160.098ZM45.8801 157.244H138.474V55.0093H44.3029C43.9415 55.0092 43.5936 54.8719 43.3294 54.6252L35.7562 47.5503V150.241L45.8801 157.244ZM98.6399 21.5952L54.4268 38.2276L98.6399 28.3639V21.5952Z" fill="white"/>
<path d="M133.672 55.0099C133.613 55.01 133.554 55.0064 133.495 54.9989C133.12 54.9523 132.778 54.7586 132.546 54.4604C132.313 54.1622 132.209 53.7839 132.255 53.4085L133.452 43.7676L49.074 47.4027C48.6982 47.4196 48.3311 47.2865 48.0533 47.0328L42.425 41.9138C42.1644 41.6549 42.0136 41.3055 42.0041 40.9383C41.9947 40.571 42.1272 40.2143 42.3741 39.9423C42.6211 39.6703 42.9634 39.5041 43.3298 39.4782C43.6963 39.4523 44.0586 39.5687 44.3414 39.8032L49.5361 44.5282L135.012 40.8459C135.219 40.8371 135.425 40.8736 135.617 40.9527C135.808 41.0318 135.98 41.1517 136.121 41.304C136.261 41.4563 136.367 41.6373 136.43 41.8346C136.494 42.0318 136.514 42.2405 136.488 42.4461L135.083 53.7598C135.04 54.1042 134.873 54.4211 134.614 54.6512C134.354 54.8813 134.019 55.0088 133.672 55.0099Z" fill="white"/>
<path d="M47.3049 44.9059C47.0531 44.9054 46.806 44.8383 46.5886 44.7114C46.3712 44.5846 46.1912 44.4024 46.0669 44.1835C45.9427 43.9646 45.8785 43.7167 45.881 43.465C45.8835 43.2133 45.9525 42.9667 46.0811 42.7503C45.9427 42.5597 45.8538 42.3377 45.8221 42.1043C45.7904 41.8709 45.8169 41.6333 45.8994 41.4126C45.9819 41.192 46.1178 40.9952 46.2948 40.8399C46.4719 40.6845 46.6846 40.5754 46.9141 40.5223L113.654 25.1202C113.862 25.0722 114.08 25.0719 114.289 25.1194C114.498 25.1668 114.694 25.2608 114.861 25.3943C115.029 25.5278 115.165 25.6974 115.258 25.8905C115.351 26.0837 115.4 26.2953 115.4 26.5097V34.6558C115.4 35.0016 115.274 35.3355 115.046 35.5955C114.818 35.8556 114.503 36.024 114.161 36.0695L47.4936 44.8938C47.4311 44.9022 47.368 44.9062 47.3049 44.9059ZM112.544 28.3031L60.6841 40.2665L112.544 33.4024V28.3031Z" fill="white"/>
<path d="M47.5858 45.834C47.2264 45.8312 46.8813 45.693 46.6195 45.4468C46.3576 45.2007 46.1983 44.8648 46.1734 44.5063C46.1484 44.1478 46.2597 43.7931 46.4849 43.513C46.7101 43.233 47.0327 43.0482 47.3882 42.9957L126.392 31.873C126.605 31.8433 126.822 31.8622 127.026 31.9282C127.231 31.9942 127.418 32.1056 127.574 32.2541C127.73 32.4026 127.85 32.5844 127.925 32.7858C128 32.9872 128.029 33.2031 128.01 33.4173L127.132 42.8563C127.118 43.046 127.067 43.2312 126.981 43.4009C126.895 43.5706 126.777 43.7214 126.632 43.8445C126.487 43.9676 126.318 44.0604 126.137 44.1176C125.956 44.1747 125.765 44.1951 125.575 44.1774C125.386 44.1597 125.202 44.1043 125.034 44.0145C124.867 43.9247 124.719 43.8023 124.599 43.6544C124.479 43.5066 124.391 43.3364 124.338 43.1537C124.285 42.971 124.269 42.7796 124.291 42.5907L125.004 34.9473L47.7855 45.8197C47.7194 45.8294 47.6526 45.8341 47.5858 45.834Z" fill="white"/>
<path d="M45.4389 160.097C45.0633 160.097 44.7028 159.949 44.4357 159.685C44.1686 159.421 44.0164 159.062 44.012 158.687L42.8717 53.5985C42.8696 53.4112 42.9046 53.2252 42.9744 53.0513C43.0442 52.8775 43.1476 52.719 43.2787 52.5851C43.4098 52.4512 43.5659 52.3444 43.7383 52.2708C43.9106 52.1973 44.0958 52.1584 44.2831 52.1563C44.4705 52.1543 44.6564 52.1892 44.8303 52.2591C45.0042 52.3289 45.1626 52.4323 45.2965 52.5634C45.4305 52.6944 45.5373 52.8506 45.6108 53.0229C45.6844 53.1953 45.7233 53.3804 45.7253 53.5678L46.8657 158.655C46.8698 159.033 46.7235 159.398 46.4591 159.668C46.1946 159.938 45.8336 160.093 45.4553 160.097H45.4389Z" fill="white"/>
</svg>
