<svg width="56" height="48" fill="none" xmlns="http://www.w3.org/2000/svg"><mask id="a" style="mask-type:alpha" maskUnits="userSpaceOnUse" x="48" y="0" width="8" height="8"><path transform="matrix(-1 0 0 1 56 0)" fill="#C4C4C4" d="M0 0h8v8H0z"/></mask><g mask="url(#a)" fill="#fff"><path fill-rule="evenodd" clip-rule="evenodd" d="M56 7.5H12V8h44v-.5ZM56 0H12v.5h44V0Z"/><circle r=".5" transform="matrix(-1 0 0 1 52.5 2)"/><circle r=".5" transform="matrix(-1 0 0 1 50.5 4)"/><circle r=".5" transform="matrix(-1 0 0 1 55 3)"/><circle r=".5" transform="matrix(-1 0 0 1 53.5 5)"/><circle r=".5" transform="matrix(-1 0 0 1 49 2)"/><circle r=".5" transform="matrix(-1 0 0 1 55 6)"/><circle r=".5" transform="matrix(-1 0 0 1 49 5)"/><circle r=".5" transform="matrix(-1 0 0 1 52.5 6)"/><circle r=".5" transform="matrix(-1 0 0 1 50.5 6)"/></g><mask id="b" style="mask-type:alpha" maskUnits="userSpaceOnUse" x="40" y="0" width="8" height="8"><path transform="matrix(-1 0 0 1 48 0)" fill="#C4C4C4" d="M0 0h8v8H0z"/></mask><g mask="url(#b)" fill="#fff"><path fill-rule="evenodd" clip-rule="evenodd" d="M48 7.5H4V8h44v-.5ZM48 0H4v.5h44V0Z"/><circle r=".5" transform="matrix(-1 0 0 1 44.5 2)"/><circle r=".5" transform="matrix(-1 0 0 1 42.5 4)"/><circle r=".5" transform="matrix(-1 0 0 1 47 3)"/><circle r=".5" transform="matrix(-1 0 0 1 45.5 5)"/><circle r=".5" transform="matrix(-1 0 0 1 41 2)"/><circle r=".5" transform="matrix(-1 0 0 1 47 6)"/><circle r=".5" transform="matrix(-1 0 0 1 41 5)"/><circle r=".5" transform="matrix(-1 0 0 1 44.5 6)"/><circle r=".5" transform="matrix(-1 0 0 1 42.5 6)"/></g><mask id="c" style="mask-type:alpha" maskUnits="userSpaceOnUse" x="32" y="0" width="8" height="8"><path transform="matrix(-1 0 0 1 40 0)" fill="#C4C4C4" d="M0 0h8v8H0z"/></mask><g mask="url(#c)" fill="#fff"><path fill-rule="evenodd" clip-rule="evenodd" d="M40 7.5H-4V8h44v-.5ZM40 0H-4v.5h44V0Z"/><circle r=".5" transform="matrix(-1 0 0 1 36.5 2)"/><circle r=".5" transform="matrix(-1 0 0 1 34.5 4)"/><circle r=".5" transform="matrix(-1 0 0 1 39 3)"/><circle r=".5" transform="matrix(-1 0 0 1 37.5 5)"/><circle r=".5" transform="matrix(-1 0 0 1 33 2)"/><circle r=".5" transform="matrix(-1 0 0 1 39 6)"/><circle r=".5" transform="matrix(-1 0 0 1 33 5)"/><circle r=".5" transform="matrix(-1 0 0 1 36.5 6)"/><circle r=".5" transform="matrix(-1 0 0 1 34.5 6)"/></g><mask id="d" style="mask-type:alpha" maskUnits="userSpaceOnUse" x="24" y="0" width="8" height="8"><path transform="matrix(-1 0 0 1 32 0)" fill="#C4C4C4" d="M0 0h8v8H0z"/></mask><g mask="url(#d)" fill="#fff"><path fill-rule="evenodd" clip-rule="evenodd" d="M32 7.5h-44V8h44v-.5ZM32 0h-44v.5h44V0Z"/><circle r=".5" transform="matrix(-1 0 0 1 28.5 2)"/><circle r=".5" transform="matrix(-1 0 0 1 26.5 4)"/><circle r=".5" transform="matrix(-1 0 0 1 31 3)"/><circle r=".5" transform="matrix(-1 0 0 1 29.5 5)"/><circle r=".5" transform="matrix(-1 0 0 1 25 2)"/><circle r=".5" transform="matrix(-1 0 0 1 31 6)"/><circle r=".5" transform="matrix(-1 0 0 1 25 5)"/><circle r=".5" transform="matrix(-1 0 0 1 28.5 6)"/><circle r=".5" transform="matrix(-1 0 0 1 26.5 6)"/></g><mask id="e" style="mask-type:alpha" maskUnits="userSpaceOnUse" x="16" y="0" width="8" height="8"><path transform="matrix(-1 0 0 1 24 0)" fill="#C4C4C4" d="M0 0h8v8H0z"/></mask><g mask="url(#e)" fill="#fff"><path fill-rule="evenodd" clip-rule="evenodd" d="M24 7.5h-44V8h44v-.5ZM24 0h-44v.5h44V0Z"/><circle r=".5" transform="matrix(-1 0 0 1 20.5 2)"/><circle r=".5" transform="matrix(-1 0 0 1 18.5 4)"/><circle r=".5" transform="matrix(-1 0 0 1 23 3)"/><circle r=".5" transform="matrix(-1 0 0 1 21.5 5)"/><circle r=".5" transform="matrix(-1 0 0 1 17 2)"/><circle r=".5" transform="matrix(-1 0 0 1 23 6)"/><circle r=".5" transform="matrix(-1 0 0 1 17 5)"/><circle r=".5" transform="matrix(-1 0 0 1 20.5 6)"/><circle r=".5" transform="matrix(-1 0 0 1 18.5 6)"/></g><mask id="f" style="mask-type:alpha" maskUnits="userSpaceOnUse" x="8" y="0" width="8" height="8"><path transform="matrix(-1 0 0 1 16 0)" fill="#C4C4C4" d="M0 0h8v8H0z"/></mask><g mask="url(#f)" fill="#fff"><path fill-rule="evenodd" clip-rule="evenodd" d="M16 7.5h-44V8h44v-.5ZM16 0h-44v.5h44V0Z"/><circle r=".5" transform="matrix(-1 0 0 1 12.5 2)"/><circle r=".5" transform="matrix(-1 0 0 1 10.5 4)"/><circle r=".5" transform="matrix(-1 0 0 1 15 3)"/><circle r=".5" transform="matrix(-1 0 0 1 13.5 5)"/><circle r=".5" transform="matrix(-1 0 0 1 9 2)"/><circle r=".5" transform="matrix(-1 0 0 1 15 6)"/><circle r=".5" transform="matrix(-1 0 0 1 9 5)"/><circle r=".5" transform="matrix(-1 0 0 1 12.5 6)"/><circle r=".5" transform="matrix(-1 0 0 1 10.5 6)"/></g><path fill-rule="evenodd" clip-rule="evenodd" d="M1 48V0H0v48h1ZM8 48V0H7v48h1Z" fill="#fff"/></svg>