<svg width="1440" height="485" viewBox="0 0 1440 485" fill="none" xmlns="http://www.w3.org/2000/svg"><g opacity=".65" stroke="#FF8E0B" stroke-width=".2"><path d="M0 32.9h720M0 192.9h720M0 64.9h720M0 224.9h720M0 96.9h720M0 256.9h720M0 128.9h720M0 288.9h720M0 384.9h720M0 160.9h720M0 320.9h720M0 416.9h720M0 352.9h720M0 448.9h720M15.9 485V0M175.9 485V0M47.9 485V0M207.9 485V0M79.9 485V0M239.9 485V0M463.9 485V0M111.9 485V0M271.9 485V0M495.9 485V0M367.9 485V0M591.9 485V0M143.9 485V0M303.9 485V0M527.9 485V0M399.9 485V0M623.9 485V0M335.9 485V0M559.9 485V0M431.9 485V0M655.9 485V0M687.9 485V0"/></g><g opacity=".65" stroke="#FF8E0B" stroke-width=".2"><path d="M720 32.9h720M720 192.9h720M720 64.9h720M720 224.9h720M720 96.9h720M720 256.9h720M720 128.9h720M720 288.9h720M720 384.9h720M720 160.9h720M720 320.9h720M720 416.9h720M720 352.9h720M720 448.9h720M1423.1 0v485M1263.1 0v485M1391.1 0v485M1231.1 0v485M1359.1 0v485M1199.1 0v485M975.1 0v485M1327.1 0v485M1167.1 0v485M943.1 0v485M1071.1 0v485M847.1 0v485M720.1 0v485M1295.1 0v485M1135.1 0v485M911.1 0v485M1039.1 0v485M815.1 0v485M1103.1 0v485M879.1 0v485M1007.1 0v485M783.1 0v485M751.1 0v485"/></g></svg>